<mxfile host="Electron" agent="Mozilla/5.0 (Windows NT 10.0; Win64; x64) AppleWebKit/537.36 (KHTML, like Gecko) draw.io/26.1.1 Chrome/132.0.6834.210 Electron/34.3.3 Safari/537.36" version="26.1.1" pages="3">
  <diagram id="C5RBs43oDa-KdzZeNtuy" name="Flowchart">
    <mxGraphModel dx="2973" dy="967" grid="1" gridSize="10" guides="1" tooltips="1" connect="1" arrows="1" fold="1" page="1" pageScale="1" pageWidth="827" pageHeight="1169" math="0" shadow="0">
      <root>
        <mxCell id="WIyWlLk6GJQsqaUBKTNV-0" />
        <mxCell id="WIyWlLk6GJQsqaUBKTNV-1" parent="WIyWlLk6GJQsqaUBKTNV-0" />
        <mxCell id="gXusyn72hN3E2sMkMNkN-12" style="edgeStyle=orthogonalEdgeStyle;rounded=0;orthogonalLoop=1;jettySize=auto;html=1;entryX=0.5;entryY=0;entryDx=0;entryDy=0;" parent="WIyWlLk6GJQsqaUBKTNV-1" source="gXusyn72hN3E2sMkMNkN-0" target="gXusyn72hN3E2sMkMNkN-11" edge="1">
          <mxGeometry relative="1" as="geometry" />
        </mxCell>
        <mxCell id="gXusyn72hN3E2sMkMNkN-0" value="START" style="strokeWidth=2;html=1;shape=mxgraph.flowchart.terminator;whiteSpace=wrap;" parent="WIyWlLk6GJQsqaUBKTNV-1" vertex="1">
          <mxGeometry x="170" y="100" width="100" height="60" as="geometry" />
        </mxCell>
        <mxCell id="gXusyn72hN3E2sMkMNkN-7" style="edgeStyle=orthogonalEdgeStyle;rounded=0;orthogonalLoop=1;jettySize=auto;html=1;entryX=0.5;entryY=0;entryDx=0;entryDy=0;" parent="WIyWlLk6GJQsqaUBKTNV-1" source="gXusyn72hN3E2sMkMNkN-4" target="gXusyn72hN3E2sMkMNkN-6" edge="1">
          <mxGeometry relative="1" as="geometry" />
        </mxCell>
        <mxCell id="gXusyn72hN3E2sMkMNkN-4" value="Login" style="rounded=0;whiteSpace=wrap;html=1;" parent="WIyWlLk6GJQsqaUBKTNV-1" vertex="1">
          <mxGeometry x="160" y="290" width="120" height="60" as="geometry" />
        </mxCell>
        <mxCell id="gXusyn72hN3E2sMkMNkN-8" style="edgeStyle=orthogonalEdgeStyle;rounded=0;orthogonalLoop=1;jettySize=auto;html=1;entryX=1;entryY=0.5;entryDx=0;entryDy=0;" parent="WIyWlLk6GJQsqaUBKTNV-1" source="gXusyn72hN3E2sMkMNkN-6" target="gXusyn72hN3E2sMkMNkN-4" edge="1">
          <mxGeometry relative="1" as="geometry">
            <Array as="points">
              <mxPoint x="300" y="420" />
              <mxPoint x="300" y="320" />
            </Array>
          </mxGeometry>
        </mxCell>
        <mxCell id="gXusyn72hN3E2sMkMNkN-10" style="edgeStyle=orthogonalEdgeStyle;rounded=0;orthogonalLoop=1;jettySize=auto;html=1;entryX=0.5;entryY=0;entryDx=0;entryDy=0;" parent="WIyWlLk6GJQsqaUBKTNV-1" source="gXusyn72hN3E2sMkMNkN-6" target="gXusyn72hN3E2sMkMNkN-16" edge="1">
          <mxGeometry relative="1" as="geometry">
            <mxPoint x="220" y="500" as="targetPoint" />
            <Array as="points" />
          </mxGeometry>
        </mxCell>
        <mxCell id="gXusyn72hN3E2sMkMNkN-6" value="Success?" style="rhombus;whiteSpace=wrap;html=1;" parent="WIyWlLk6GJQsqaUBKTNV-1" vertex="1">
          <mxGeometry x="180" y="380" width="80" height="80" as="geometry" />
        </mxCell>
        <mxCell id="gXusyn72hN3E2sMkMNkN-13" style="edgeStyle=orthogonalEdgeStyle;rounded=0;orthogonalLoop=1;jettySize=auto;html=1;entryX=0.5;entryY=0;entryDx=0;entryDy=0;" parent="WIyWlLk6GJQsqaUBKTNV-1" source="gXusyn72hN3E2sMkMNkN-11" target="gXusyn72hN3E2sMkMNkN-4" edge="1">
          <mxGeometry relative="1" as="geometry" />
        </mxCell>
        <mxCell id="gXusyn72hN3E2sMkMNkN-11" value="Initialize Sequence" style="shape=process;whiteSpace=wrap;html=1;backgroundOutline=1;" parent="WIyWlLk6GJQsqaUBKTNV-1" vertex="1">
          <mxGeometry x="160" y="200" width="120" height="60" as="geometry" />
        </mxCell>
        <mxCell id="gXusyn72hN3E2sMkMNkN-16" value="Initialize database" style="rounded=0;whiteSpace=wrap;html=1;" parent="WIyWlLk6GJQsqaUBKTNV-1" vertex="1">
          <mxGeometry x="160" y="500" width="120" height="60" as="geometry" />
        </mxCell>
        <mxCell id="05U-y7e1EcVLIiqIpHKX-7" style="edgeStyle=orthogonalEdgeStyle;rounded=0;orthogonalLoop=1;jettySize=auto;html=1;entryX=0.5;entryY=0;entryDx=0;entryDy=0;" parent="WIyWlLk6GJQsqaUBKTNV-1" source="gXusyn72hN3E2sMkMNkN-17" target="05U-y7e1EcVLIiqIpHKX-6" edge="1">
          <mxGeometry relative="1" as="geometry" />
        </mxCell>
        <mxCell id="gXusyn72hN3E2sMkMNkN-17" value="things_db" style="shape=cylinder3;whiteSpace=wrap;html=1;boundedLbl=1;backgroundOutline=1;size=15;" parent="WIyWlLk6GJQsqaUBKTNV-1" vertex="1">
          <mxGeometry x="190" y="590" width="60" height="80" as="geometry" />
        </mxCell>
        <mxCell id="gXusyn72hN3E2sMkMNkN-18" style="edgeStyle=orthogonalEdgeStyle;rounded=0;orthogonalLoop=1;jettySize=auto;html=1;entryX=0.5;entryY=0;entryDx=0;entryDy=0;entryPerimeter=0;" parent="WIyWlLk6GJQsqaUBKTNV-1" source="gXusyn72hN3E2sMkMNkN-16" target="gXusyn72hN3E2sMkMNkN-17" edge="1">
          <mxGeometry relative="1" as="geometry" />
        </mxCell>
        <mxCell id="05U-y7e1EcVLIiqIpHKX-11" style="edgeStyle=orthogonalEdgeStyle;rounded=0;orthogonalLoop=1;jettySize=auto;html=1;entryX=0.5;entryY=0;entryDx=0;entryDy=0;" parent="WIyWlLk6GJQsqaUBKTNV-1" source="05U-y7e1EcVLIiqIpHKX-3" target="05U-y7e1EcVLIiqIpHKX-5" edge="1">
          <mxGeometry relative="1" as="geometry" />
        </mxCell>
        <mxCell id="05U-y7e1EcVLIiqIpHKX-3" value="Input:&lt;div&gt;Action&lt;/div&gt;" style="shape=parallelogram;perimeter=parallelogramPerimeter;whiteSpace=wrap;html=1;fixedSize=1;" parent="WIyWlLk6GJQsqaUBKTNV-1" vertex="1">
          <mxGeometry x="160" y="1109" width="120" height="60" as="geometry" />
        </mxCell>
        <mxCell id="05U-y7e1EcVLIiqIpHKX-18" style="edgeStyle=orthogonalEdgeStyle;rounded=0;orthogonalLoop=1;jettySize=auto;html=1;entryX=0;entryY=0.5;entryDx=0;entryDy=0;" parent="WIyWlLk6GJQsqaUBKTNV-1" source="05U-y7e1EcVLIiqIpHKX-5" target="05U-y7e1EcVLIiqIpHKX-17" edge="1">
          <mxGeometry relative="1" as="geometry" />
        </mxCell>
        <mxCell id="05U-y7e1EcVLIiqIpHKX-33" value="(Y)" style="edgeLabel;html=1;align=center;verticalAlign=middle;resizable=0;points=[];" parent="05U-y7e1EcVLIiqIpHKX-18" vertex="1" connectable="0">
          <mxGeometry x="-0.3646" y="1" relative="1" as="geometry">
            <mxPoint as="offset" />
          </mxGeometry>
        </mxCell>
        <mxCell id="05U-y7e1EcVLIiqIpHKX-29" style="edgeStyle=orthogonalEdgeStyle;rounded=0;orthogonalLoop=1;jettySize=auto;html=1;entryX=0.5;entryY=0;entryDx=0;entryDy=0;" parent="WIyWlLk6GJQsqaUBKTNV-1" source="05U-y7e1EcVLIiqIpHKX-5" target="05U-y7e1EcVLIiqIpHKX-28" edge="1">
          <mxGeometry relative="1" as="geometry" />
        </mxCell>
        <mxCell id="05U-y7e1EcVLIiqIpHKX-34" value="(N)" style="edgeLabel;html=1;align=center;verticalAlign=middle;resizable=0;points=[];" parent="05U-y7e1EcVLIiqIpHKX-29" vertex="1" connectable="0">
          <mxGeometry x="-0.2343" relative="1" as="geometry">
            <mxPoint as="offset" />
          </mxGeometry>
        </mxCell>
        <mxCell id="05U-y7e1EcVLIiqIpHKX-5" value="Action&lt;div&gt;Jump to Date?&lt;/div&gt;" style="rhombus;whiteSpace=wrap;html=1;" parent="WIyWlLk6GJQsqaUBKTNV-1" vertex="1">
          <mxGeometry x="180" y="1220" width="80" height="80" as="geometry" />
        </mxCell>
        <mxCell id="05U-y7e1EcVLIiqIpHKX-8" style="edgeStyle=orthogonalEdgeStyle;rounded=0;orthogonalLoop=1;jettySize=auto;html=1;entryX=0.5;entryY=0;entryDx=0;entryDy=0;" parent="WIyWlLk6GJQsqaUBKTNV-1" source="05U-y7e1EcVLIiqIpHKX-6" target="v914vWunUFtBl5WVGQem-1" edge="1">
          <mxGeometry relative="1" as="geometry">
            <mxPoint x="220" y="790" as="targetPoint" />
          </mxGeometry>
        </mxCell>
        <mxCell id="05U-y7e1EcVLIiqIpHKX-6" value="{date} = TODAY" style="rounded=0;whiteSpace=wrap;html=1;" parent="WIyWlLk6GJQsqaUBKTNV-1" vertex="1">
          <mxGeometry x="160" y="700" width="120" height="60" as="geometry" />
        </mxCell>
        <mxCell id="05U-y7e1EcVLIiqIpHKX-24" style="edgeStyle=orthogonalEdgeStyle;rounded=0;orthogonalLoop=1;jettySize=auto;html=1;entryX=1;entryY=0.5;entryDx=0;entryDy=0;" parent="WIyWlLk6GJQsqaUBKTNV-1" source="05U-y7e1EcVLIiqIpHKX-13" target="v914vWunUFtBl5WVGQem-1" edge="1">
          <mxGeometry relative="1" as="geometry">
            <Array as="points">
              <mxPoint x="620" y="820" />
            </Array>
            <mxPoint x="270" y="820" as="targetPoint" />
          </mxGeometry>
        </mxCell>
        <mxCell id="05U-y7e1EcVLIiqIpHKX-13" value="{date} =&amp;nbsp;&lt;div&gt;YESTERDAY&lt;/div&gt;" style="rounded=0;whiteSpace=wrap;html=1;" parent="WIyWlLk6GJQsqaUBKTNV-1" vertex="1">
          <mxGeometry x="560" y="880" width="120" height="60" as="geometry" />
        </mxCell>
        <mxCell id="05U-y7e1EcVLIiqIpHKX-25" style="edgeStyle=orthogonalEdgeStyle;rounded=0;orthogonalLoop=1;jettySize=auto;html=1;exitX=0.5;exitY=0;exitDx=0;exitDy=0;endArrow=none;startFill=0;" parent="WIyWlLk6GJQsqaUBKTNV-1" source="05U-y7e1EcVLIiqIpHKX-14" edge="1">
          <mxGeometry relative="1" as="geometry">
            <mxPoint x="470" y="820" as="targetPoint" />
          </mxGeometry>
        </mxCell>
        <mxCell id="05U-y7e1EcVLIiqIpHKX-14" value="{date} =&amp;nbsp;&lt;div&gt;TOMORROW&lt;/div&gt;" style="rounded=0;whiteSpace=wrap;html=1;" parent="WIyWlLk6GJQsqaUBKTNV-1" vertex="1">
          <mxGeometry x="410" y="880" width="120" height="60" as="geometry" />
        </mxCell>
        <mxCell id="05U-y7e1EcVLIiqIpHKX-21" style="edgeStyle=orthogonalEdgeStyle;rounded=0;orthogonalLoop=1;jettySize=auto;html=1;entryX=0;entryY=0.5;entryDx=0;entryDy=0;" parent="WIyWlLk6GJQsqaUBKTNV-1" source="05U-y7e1EcVLIiqIpHKX-17" target="05U-y7e1EcVLIiqIpHKX-20" edge="1">
          <mxGeometry relative="1" as="geometry">
            <Array as="points">
              <mxPoint x="490" y="1260" />
              <mxPoint x="490" y="1260" />
            </Array>
          </mxGeometry>
        </mxCell>
        <mxCell id="05U-y7e1EcVLIiqIpHKX-17" value="Input:&lt;div&gt;Mode&lt;/div&gt;" style="shape=parallelogram;perimeter=parallelogramPerimeter;whiteSpace=wrap;html=1;fixedSize=1;" parent="WIyWlLk6GJQsqaUBKTNV-1" vertex="1">
          <mxGeometry x="320" y="1230" width="120" height="60" as="geometry" />
        </mxCell>
        <mxCell id="05U-y7e1EcVLIiqIpHKX-22" style="edgeStyle=orthogonalEdgeStyle;rounded=0;orthogonalLoop=1;jettySize=auto;html=1;entryX=0.5;entryY=1;entryDx=0;entryDy=0;exitX=0;exitY=0.5;exitDx=0;exitDy=0;" parent="WIyWlLk6GJQsqaUBKTNV-1" source="05U-y7e1EcVLIiqIpHKX-31" target="05U-y7e1EcVLIiqIpHKX-14" edge="1">
          <mxGeometry relative="1" as="geometry">
            <Array as="points">
              <mxPoint x="470" y="1030" />
            </Array>
            <mxPoint x="470" y="1130" as="targetPoint" />
          </mxGeometry>
        </mxCell>
        <mxCell id="05U-y7e1EcVLIiqIpHKX-26" value="(1)" style="edgeLabel;html=1;align=center;verticalAlign=middle;resizable=0;points=[];" parent="05U-y7e1EcVLIiqIpHKX-22" vertex="1" connectable="0">
          <mxGeometry x="0.3185" y="-2" relative="1" as="geometry">
            <mxPoint x="-2" y="16" as="offset" />
          </mxGeometry>
        </mxCell>
        <mxCell id="05U-y7e1EcVLIiqIpHKX-23" style="edgeStyle=orthogonalEdgeStyle;rounded=0;orthogonalLoop=1;jettySize=auto;html=1;entryX=0.5;entryY=1;entryDx=0;entryDy=0;exitX=1;exitY=0.5;exitDx=0;exitDy=0;" parent="WIyWlLk6GJQsqaUBKTNV-1" source="05U-y7e1EcVLIiqIpHKX-31" target="05U-y7e1EcVLIiqIpHKX-13" edge="1">
          <mxGeometry relative="1" as="geometry">
            <Array as="points">
              <mxPoint x="620" y="1030" />
            </Array>
            <mxPoint x="620" y="1130" as="targetPoint" />
          </mxGeometry>
        </mxCell>
        <mxCell id="05U-y7e1EcVLIiqIpHKX-27" value="(2)" style="edgeLabel;html=1;align=center;verticalAlign=middle;resizable=0;points=[];" parent="05U-y7e1EcVLIiqIpHKX-23" vertex="1" connectable="0">
          <mxGeometry x="0.3962" relative="1" as="geometry">
            <mxPoint y="8" as="offset" />
          </mxGeometry>
        </mxCell>
        <mxCell id="05U-y7e1EcVLIiqIpHKX-36" style="edgeStyle=orthogonalEdgeStyle;rounded=0;orthogonalLoop=1;jettySize=auto;html=1;entryX=0.5;entryY=0;entryDx=0;entryDy=0;" parent="WIyWlLk6GJQsqaUBKTNV-1" source="05U-y7e1EcVLIiqIpHKX-20" target="05U-y7e1EcVLIiqIpHKX-35" edge="1">
          <mxGeometry relative="1" as="geometry" />
        </mxCell>
        <mxCell id="05U-y7e1EcVLIiqIpHKX-48" value="(N)" style="edgeLabel;html=1;align=center;verticalAlign=middle;resizable=0;points=[];" parent="05U-y7e1EcVLIiqIpHKX-36" vertex="1" connectable="0">
          <mxGeometry x="0.2217" relative="1" as="geometry">
            <mxPoint y="-11" as="offset" />
          </mxGeometry>
        </mxCell>
        <mxCell id="Try4QKZAS5DBBpIfiLRu-10" style="edgeStyle=orthogonalEdgeStyle;rounded=0;orthogonalLoop=1;jettySize=auto;html=1;entryX=0.5;entryY=1;entryDx=0;entryDy=0;" parent="WIyWlLk6GJQsqaUBKTNV-1" source="05U-y7e1EcVLIiqIpHKX-20" target="Try4QKZAS5DBBpIfiLRu-9" edge="1">
          <mxGeometry relative="1" as="geometry" />
        </mxCell>
        <mxCell id="05U-y7e1EcVLIiqIpHKX-20" value="one-day?" style="rhombus;whiteSpace=wrap;html=1;" parent="WIyWlLk6GJQsqaUBKTNV-1" vertex="1">
          <mxGeometry x="500" y="1220" width="80" height="80" as="geometry" />
        </mxCell>
        <mxCell id="05U-y7e1EcVLIiqIpHKX-51" style="edgeStyle=orthogonalEdgeStyle;rounded=0;orthogonalLoop=1;jettySize=auto;html=1;entryX=1;entryY=0.5;entryDx=0;entryDy=0;" parent="WIyWlLk6GJQsqaUBKTNV-1" source="05U-y7e1EcVLIiqIpHKX-28" target="05U-y7e1EcVLIiqIpHKX-52" edge="1">
          <mxGeometry relative="1" as="geometry">
            <mxPoint x="140" y="1390" as="targetPoint" />
          </mxGeometry>
        </mxCell>
        <mxCell id="DLq4Pm85FSkG8CLuPHll-5" value="(Y)" style="edgeLabel;html=1;align=center;verticalAlign=middle;resizable=0;points=[];" parent="05U-y7e1EcVLIiqIpHKX-51" vertex="1" connectable="0">
          <mxGeometry x="-0.1275" y="-1" relative="1" as="geometry">
            <mxPoint as="offset" />
          </mxGeometry>
        </mxCell>
        <mxCell id="05U-y7e1EcVLIiqIpHKX-54" style="edgeStyle=orthogonalEdgeStyle;rounded=0;orthogonalLoop=1;jettySize=auto;html=1;entryX=0.5;entryY=0;entryDx=0;entryDy=0;" parent="WIyWlLk6GJQsqaUBKTNV-1" source="05U-y7e1EcVLIiqIpHKX-28" target="05U-y7e1EcVLIiqIpHKX-53" edge="1">
          <mxGeometry relative="1" as="geometry" />
        </mxCell>
        <mxCell id="DLq4Pm85FSkG8CLuPHll-6" value="(N)" style="edgeLabel;html=1;align=center;verticalAlign=middle;resizable=0;points=[];" parent="05U-y7e1EcVLIiqIpHKX-54" vertex="1" connectable="0">
          <mxGeometry x="0.1235" relative="1" as="geometry">
            <mxPoint as="offset" />
          </mxGeometry>
        </mxCell>
        <mxCell id="05U-y7e1EcVLIiqIpHKX-28" value="&lt;div&gt;Action&lt;/div&gt;Add Things?" style="rhombus;whiteSpace=wrap;html=1;" parent="WIyWlLk6GJQsqaUBKTNV-1" vertex="1">
          <mxGeometry x="180" y="1350" width="80" height="80" as="geometry" />
        </mxCell>
        <mxCell id="05U-y7e1EcVLIiqIpHKX-31" value="input" style="rhombus;whiteSpace=wrap;html=1;" parent="WIyWlLk6GJQsqaUBKTNV-1" vertex="1">
          <mxGeometry x="500" y="990" width="80" height="80" as="geometry" />
        </mxCell>
        <mxCell id="05U-y7e1EcVLIiqIpHKX-38" style="edgeStyle=orthogonalEdgeStyle;rounded=0;orthogonalLoop=1;jettySize=auto;html=1;entryX=0;entryY=0.5;entryDx=0;entryDy=0;" parent="WIyWlLk6GJQsqaUBKTNV-1" source="05U-y7e1EcVLIiqIpHKX-35" target="05U-y7e1EcVLIiqIpHKX-37" edge="1">
          <mxGeometry relative="1" as="geometry" />
        </mxCell>
        <mxCell id="05U-y7e1EcVLIiqIpHKX-49" value="(Y)" style="edgeLabel;html=1;align=center;verticalAlign=middle;resizable=0;points=[];" parent="05U-y7e1EcVLIiqIpHKX-38" vertex="1" connectable="0">
          <mxGeometry x="-0.3394" y="-1" relative="1" as="geometry">
            <mxPoint x="3" y="-1" as="offset" />
          </mxGeometry>
        </mxCell>
        <mxCell id="Try4QKZAS5DBBpIfiLRu-13" style="edgeStyle=orthogonalEdgeStyle;rounded=0;orthogonalLoop=1;jettySize=auto;html=1;entryX=0.5;entryY=1;entryDx=0;entryDy=0;" parent="WIyWlLk6GJQsqaUBKTNV-1" source="05U-y7e1EcVLIiqIpHKX-35" target="Try4QKZAS5DBBpIfiLRu-12" edge="1">
          <mxGeometry relative="1" as="geometry">
            <Array as="points">
              <mxPoint x="540" y="1470" />
              <mxPoint x="990" y="1470" />
            </Array>
          </mxGeometry>
        </mxCell>
        <mxCell id="Try4QKZAS5DBBpIfiLRu-15" value="(N)" style="edgeLabel;html=1;align=center;verticalAlign=middle;resizable=0;points=[];" parent="Try4QKZAS5DBBpIfiLRu-13" vertex="1" connectable="0">
          <mxGeometry x="-0.9657" relative="1" as="geometry">
            <mxPoint as="offset" />
          </mxGeometry>
        </mxCell>
        <mxCell id="05U-y7e1EcVLIiqIpHKX-35" value="spesific-date?" style="rhombus;whiteSpace=wrap;html=1;" parent="WIyWlLk6GJQsqaUBKTNV-1" vertex="1">
          <mxGeometry x="500" y="1350" width="80" height="80" as="geometry" />
        </mxCell>
        <mxCell id="05U-y7e1EcVLIiqIpHKX-41" style="edgeStyle=orthogonalEdgeStyle;rounded=0;orthogonalLoop=1;jettySize=auto;html=1;entryX=0.5;entryY=1;entryDx=0;entryDy=0;" parent="WIyWlLk6GJQsqaUBKTNV-1" source="05U-y7e1EcVLIiqIpHKX-37" target="05U-y7e1EcVLIiqIpHKX-40" edge="1">
          <mxGeometry relative="1" as="geometry">
            <Array as="points">
              <mxPoint x="810" y="1390" />
            </Array>
            <mxPoint x="810" y="1130" as="targetPoint" />
          </mxGeometry>
        </mxCell>
        <mxCell id="05U-y7e1EcVLIiqIpHKX-37" value="Input:&lt;div&gt;Date&lt;/div&gt;" style="shape=parallelogram;perimeter=parallelogramPerimeter;whiteSpace=wrap;html=1;fixedSize=1;" parent="WIyWlLk6GJQsqaUBKTNV-1" vertex="1">
          <mxGeometry x="670" y="1360" width="120" height="60" as="geometry" />
        </mxCell>
        <mxCell id="05U-y7e1EcVLIiqIpHKX-42" style="edgeStyle=orthogonalEdgeStyle;rounded=0;orthogonalLoop=1;jettySize=auto;html=1;endArrow=none;startFill=0;" parent="WIyWlLk6GJQsqaUBKTNV-1" source="05U-y7e1EcVLIiqIpHKX-40" edge="1">
          <mxGeometry relative="1" as="geometry">
            <mxPoint x="620.0000000000002" y="820" as="targetPoint" />
            <Array as="points">
              <mxPoint x="810" y="820" />
            </Array>
          </mxGeometry>
        </mxCell>
        <mxCell id="05U-y7e1EcVLIiqIpHKX-40" value="{date} =&amp;nbsp;&lt;div&gt;DATE INPUT&lt;/div&gt;" style="rounded=0;whiteSpace=wrap;html=1;" parent="WIyWlLk6GJQsqaUBKTNV-1" vertex="1">
          <mxGeometry x="750" y="880" width="120" height="60" as="geometry" />
        </mxCell>
        <mxCell id="05U-y7e1EcVLIiqIpHKX-46" value="" style="endArrow=none;html=1;rounded=0;" parent="WIyWlLk6GJQsqaUBKTNV-1" edge="1">
          <mxGeometry width="50" height="50" relative="1" as="geometry">
            <mxPoint x="810" y="820" as="sourcePoint" />
            <mxPoint x="920" y="820" as="targetPoint" />
          </mxGeometry>
        </mxCell>
        <mxCell id="DLq4Pm85FSkG8CLuPHll-1" style="edgeStyle=orthogonalEdgeStyle;rounded=0;orthogonalLoop=1;jettySize=auto;html=1;entryX=0.5;entryY=1;entryDx=0;entryDy=0;" parent="WIyWlLk6GJQsqaUBKTNV-1" source="05U-y7e1EcVLIiqIpHKX-52" target="DLq4Pm85FSkG8CLuPHll-0" edge="1">
          <mxGeometry relative="1" as="geometry">
            <Array as="points">
              <mxPoint x="-50" y="1390" />
            </Array>
          </mxGeometry>
        </mxCell>
        <mxCell id="05U-y7e1EcVLIiqIpHKX-52" value="Input:&lt;div&gt;Things&lt;/div&gt;" style="shape=parallelogram;perimeter=parallelogramPerimeter;whiteSpace=wrap;html=1;fixedSize=1;" parent="WIyWlLk6GJQsqaUBKTNV-1" vertex="1">
          <mxGeometry y="1360" width="120" height="60" as="geometry" />
        </mxCell>
        <mxCell id="v914vWunUFtBl5WVGQem-10" style="edgeStyle=orthogonalEdgeStyle;rounded=0;orthogonalLoop=1;jettySize=auto;html=1;entryX=1;entryY=0.5;entryDx=0;entryDy=0;" parent="WIyWlLk6GJQsqaUBKTNV-1" source="05U-y7e1EcVLIiqIpHKX-53" target="v914vWunUFtBl5WVGQem-8" edge="1">
          <mxGeometry relative="1" as="geometry" />
        </mxCell>
        <mxCell id="v914vWunUFtBl5WVGQem-30" value="(Y)" style="edgeLabel;html=1;align=center;verticalAlign=middle;resizable=0;points=[];" parent="v914vWunUFtBl5WVGQem-10" vertex="1" connectable="0">
          <mxGeometry x="0.0286" y="2" relative="1" as="geometry">
            <mxPoint as="offset" />
          </mxGeometry>
        </mxCell>
        <mxCell id="05U-y7e1EcVLIiqIpHKX-53" value="&lt;div&gt;Action&lt;/div&gt;Edit Things?" style="rhombus;whiteSpace=wrap;html=1;" parent="WIyWlLk6GJQsqaUBKTNV-1" vertex="1">
          <mxGeometry x="180" y="1480" width="80" height="80" as="geometry" />
        </mxCell>
        <mxCell id="v914vWunUFtBl5WVGQem-32" style="edgeStyle=orthogonalEdgeStyle;rounded=0;orthogonalLoop=1;jettySize=auto;html=1;entryX=0.5;entryY=0;entryDx=0;entryDy=0;" parent="WIyWlLk6GJQsqaUBKTNV-1" source="05U-y7e1EcVLIiqIpHKX-55" target="v914vWunUFtBl5WVGQem-31" edge="1">
          <mxGeometry relative="1" as="geometry" />
        </mxCell>
        <mxCell id="v914vWunUFtBl5WVGQem-53" value="(N)" style="edgeLabel;html=1;align=center;verticalAlign=middle;resizable=0;points=[];" parent="v914vWunUFtBl5WVGQem-32" vertex="1" connectable="0">
          <mxGeometry x="-0.2152" relative="1" as="geometry">
            <mxPoint as="offset" />
          </mxGeometry>
        </mxCell>
        <mxCell id="v914vWunUFtBl5WVGQem-38" style="edgeStyle=orthogonalEdgeStyle;rounded=0;orthogonalLoop=1;jettySize=auto;html=1;entryX=1;entryY=0.5;entryDx=0;entryDy=0;" parent="WIyWlLk6GJQsqaUBKTNV-1" source="05U-y7e1EcVLIiqIpHKX-55" target="v914vWunUFtBl5WVGQem-35" edge="1">
          <mxGeometry relative="1" as="geometry" />
        </mxCell>
        <mxCell id="v914vWunUFtBl5WVGQem-52" value="(Y)" style="edgeLabel;html=1;align=center;verticalAlign=middle;resizable=0;points=[];" parent="v914vWunUFtBl5WVGQem-38" vertex="1" connectable="0">
          <mxGeometry x="0.0422" relative="1" as="geometry">
            <mxPoint as="offset" />
          </mxGeometry>
        </mxCell>
        <mxCell id="05U-y7e1EcVLIiqIpHKX-55" value="&lt;div&gt;Action&lt;/div&gt;Delete Things?" style="rhombus;whiteSpace=wrap;html=1;" parent="WIyWlLk6GJQsqaUBKTNV-1" vertex="1">
          <mxGeometry x="180" y="1600" width="80" height="80" as="geometry" />
        </mxCell>
        <mxCell id="05U-y7e1EcVLIiqIpHKX-56" style="edgeStyle=orthogonalEdgeStyle;rounded=0;orthogonalLoop=1;jettySize=auto;html=1;entryX=0.5;entryY=0;entryDx=0;entryDy=0;exitX=0.5;exitY=1;exitDx=0;exitDy=0;" parent="WIyWlLk6GJQsqaUBKTNV-1" source="05U-y7e1EcVLIiqIpHKX-53" target="05U-y7e1EcVLIiqIpHKX-55" edge="1">
          <mxGeometry relative="1" as="geometry">
            <mxPoint x="220" y="1577.7" as="sourcePoint" />
            <mxPoint x="230" y="1507.7" as="targetPoint" />
          </mxGeometry>
        </mxCell>
        <mxCell id="v914vWunUFtBl5WVGQem-51" value="(N)" style="edgeLabel;html=1;align=center;verticalAlign=middle;resizable=0;points=[];" parent="05U-y7e1EcVLIiqIpHKX-56" vertex="1" connectable="0">
          <mxGeometry x="-0.1283" relative="1" as="geometry">
            <mxPoint as="offset" />
          </mxGeometry>
        </mxCell>
        <mxCell id="DLq4Pm85FSkG8CLuPHll-3" style="edgeStyle=orthogonalEdgeStyle;rounded=0;orthogonalLoop=1;jettySize=auto;html=1;entryX=0.5;entryY=1;entryDx=0;entryDy=0;entryPerimeter=0;" parent="WIyWlLk6GJQsqaUBKTNV-1" source="DLq4Pm85FSkG8CLuPHll-0" target="DLq4Pm85FSkG8CLuPHll-2" edge="1">
          <mxGeometry relative="1" as="geometry">
            <mxPoint x="-50" y="1180" as="targetPoint" />
          </mxGeometry>
        </mxCell>
        <mxCell id="DLq4Pm85FSkG8CLuPHll-0" value="Input to database&lt;div&gt;with date = {date}&lt;/div&gt;" style="rounded=0;whiteSpace=wrap;html=1;" parent="WIyWlLk6GJQsqaUBKTNV-1" vertex="1">
          <mxGeometry x="-110" y="1000" width="120" height="60" as="geometry" />
        </mxCell>
        <mxCell id="DLq4Pm85FSkG8CLuPHll-4" style="edgeStyle=orthogonalEdgeStyle;rounded=0;orthogonalLoop=1;jettySize=auto;html=1;entryX=0;entryY=0.5;entryDx=0;entryDy=0;" parent="WIyWlLk6GJQsqaUBKTNV-1" source="DLq4Pm85FSkG8CLuPHll-2" target="v914vWunUFtBl5WVGQem-1" edge="1">
          <mxGeometry relative="1" as="geometry">
            <mxPoint x="170" y="820" as="targetPoint" />
            <Array as="points">
              <mxPoint x="-50" y="820" />
            </Array>
          </mxGeometry>
        </mxCell>
        <mxCell id="DLq4Pm85FSkG8CLuPHll-2" value="things_db" style="shape=cylinder3;whiteSpace=wrap;html=1;boundedLbl=1;backgroundOutline=1;size=15;" parent="WIyWlLk6GJQsqaUBKTNV-1" vertex="1">
          <mxGeometry x="-80" y="870" width="60" height="80" as="geometry" />
        </mxCell>
        <mxCell id="DLq4Pm85FSkG8CLuPHll-9" value="Quit Sequence" style="shape=process;whiteSpace=wrap;html=1;backgroundOutline=1;" parent="WIyWlLk6GJQsqaUBKTNV-1" vertex="1">
          <mxGeometry x="160" y="1870" width="120" height="60" as="geometry" />
        </mxCell>
        <mxCell id="DLq4Pm85FSkG8CLuPHll-10" value="END" style="strokeWidth=2;html=1;shape=mxgraph.flowchart.terminator;whiteSpace=wrap;" parent="WIyWlLk6GJQsqaUBKTNV-1" vertex="1">
          <mxGeometry x="170" y="1970" width="100" height="60" as="geometry" />
        </mxCell>
        <mxCell id="DLq4Pm85FSkG8CLuPHll-11" style="edgeStyle=orthogonalEdgeStyle;rounded=0;orthogonalLoop=1;jettySize=auto;html=1;entryX=0.5;entryY=0;entryDx=0;entryDy=0;entryPerimeter=0;" parent="WIyWlLk6GJQsqaUBKTNV-1" source="DLq4Pm85FSkG8CLuPHll-9" target="DLq4Pm85FSkG8CLuPHll-10" edge="1">
          <mxGeometry relative="1" as="geometry" />
        </mxCell>
        <mxCell id="v914vWunUFtBl5WVGQem-1" value="Read things_db&lt;div&gt;Based on {date}&lt;/div&gt;" style="rounded=0;whiteSpace=wrap;html=1;" parent="WIyWlLk6GJQsqaUBKTNV-1" vertex="1">
          <mxGeometry x="160" y="790" width="120" height="60" as="geometry" />
        </mxCell>
        <mxCell id="v914vWunUFtBl5WVGQem-6" style="edgeStyle=orthogonalEdgeStyle;rounded=0;orthogonalLoop=1;jettySize=auto;html=1;entryX=0.5;entryY=0;entryDx=0;entryDy=0;" parent="WIyWlLk6GJQsqaUBKTNV-1" source="v914vWunUFtBl5WVGQem-2" target="v914vWunUFtBl5WVGQem-4" edge="1">
          <mxGeometry relative="1" as="geometry" />
        </mxCell>
        <mxCell id="v914vWunUFtBl5WVGQem-2" value="things_db" style="shape=cylinder3;whiteSpace=wrap;html=1;boundedLbl=1;backgroundOutline=1;size=15;" parent="WIyWlLk6GJQsqaUBKTNV-1" vertex="1">
          <mxGeometry x="190" y="880" width="60" height="80" as="geometry" />
        </mxCell>
        <mxCell id="v914vWunUFtBl5WVGQem-7" style="edgeStyle=orthogonalEdgeStyle;rounded=0;orthogonalLoop=1;jettySize=auto;html=1;entryX=0.5;entryY=0;entryDx=0;entryDy=0;" parent="WIyWlLk6GJQsqaUBKTNV-1" source="v914vWunUFtBl5WVGQem-4" target="05U-y7e1EcVLIiqIpHKX-3" edge="1">
          <mxGeometry relative="1" as="geometry" />
        </mxCell>
        <mxCell id="v914vWunUFtBl5WVGQem-4" value="Output:&lt;div&gt;{date}&#39;s Things&lt;/div&gt;" style="shape=parallelogram;perimeter=parallelogramPerimeter;whiteSpace=wrap;html=1;fixedSize=1;" parent="WIyWlLk6GJQsqaUBKTNV-1" vertex="1">
          <mxGeometry x="160" y="1000" width="120" height="60" as="geometry" />
        </mxCell>
        <mxCell id="v914vWunUFtBl5WVGQem-5" style="edgeStyle=orthogonalEdgeStyle;rounded=0;orthogonalLoop=1;jettySize=auto;html=1;entryX=0.5;entryY=0;entryDx=0;entryDy=0;entryPerimeter=0;" parent="WIyWlLk6GJQsqaUBKTNV-1" source="v914vWunUFtBl5WVGQem-1" target="v914vWunUFtBl5WVGQem-2" edge="1">
          <mxGeometry relative="1" as="geometry" />
        </mxCell>
        <mxCell id="v914vWunUFtBl5WVGQem-11" style="edgeStyle=orthogonalEdgeStyle;rounded=0;orthogonalLoop=1;jettySize=auto;html=1;entryX=1;entryY=0.5;entryDx=0;entryDy=0;" parent="WIyWlLk6GJQsqaUBKTNV-1" source="v914vWunUFtBl5WVGQem-8" target="v914vWunUFtBl5WVGQem-9" edge="1">
          <mxGeometry relative="1" as="geometry" />
        </mxCell>
        <mxCell id="v914vWunUFtBl5WVGQem-8" value="Input:&lt;div&gt;Select Things&lt;/div&gt;" style="shape=parallelogram;perimeter=parallelogramPerimeter;whiteSpace=wrap;html=1;fixedSize=1;" parent="WIyWlLk6GJQsqaUBKTNV-1" vertex="1">
          <mxGeometry y="1490" width="120" height="60" as="geometry" />
        </mxCell>
        <mxCell id="v914vWunUFtBl5WVGQem-17" style="edgeStyle=orthogonalEdgeStyle;rounded=0;orthogonalLoop=1;jettySize=auto;html=1;entryX=0.5;entryY=1;entryDx=0;entryDy=0;" parent="WIyWlLk6GJQsqaUBKTNV-1" source="v914vWunUFtBl5WVGQem-9" target="v914vWunUFtBl5WVGQem-12" edge="1">
          <mxGeometry relative="1" as="geometry" />
        </mxCell>
        <mxCell id="Try4QKZAS5DBBpIfiLRu-5" value="(Y)" style="edgeLabel;html=1;align=center;verticalAlign=middle;resizable=0;points=[];" parent="v914vWunUFtBl5WVGQem-17" vertex="1" connectable="0">
          <mxGeometry x="-0.5058" y="1" relative="1" as="geometry">
            <mxPoint as="offset" />
          </mxGeometry>
        </mxCell>
        <mxCell id="v914vWunUFtBl5WVGQem-36" style="edgeStyle=orthogonalEdgeStyle;rounded=0;orthogonalLoop=1;jettySize=auto;html=1;entryX=0.5;entryY=0;entryDx=0;entryDy=0;" parent="WIyWlLk6GJQsqaUBKTNV-1" source="v914vWunUFtBl5WVGQem-9" target="v914vWunUFtBl5WVGQem-8" edge="1">
          <mxGeometry relative="1" as="geometry">
            <Array as="points">
              <mxPoint x="-100" y="1460" />
              <mxPoint x="60" y="1460" />
            </Array>
          </mxGeometry>
        </mxCell>
        <mxCell id="Try4QKZAS5DBBpIfiLRu-6" value="(N)" style="edgeLabel;html=1;align=center;verticalAlign=middle;resizable=0;points=[];" parent="v914vWunUFtBl5WVGQem-36" vertex="1" connectable="0">
          <mxGeometry x="-0.066" y="1" relative="1" as="geometry">
            <mxPoint as="offset" />
          </mxGeometry>
        </mxCell>
        <mxCell id="v914vWunUFtBl5WVGQem-9" value="&lt;div&gt;Is the things there?&lt;/div&gt;" style="rhombus;whiteSpace=wrap;html=1;" parent="WIyWlLk6GJQsqaUBKTNV-1" vertex="1">
          <mxGeometry x="-140" y="1480" width="80" height="80" as="geometry" />
        </mxCell>
        <mxCell id="v914vWunUFtBl5WVGQem-18" style="edgeStyle=orthogonalEdgeStyle;rounded=0;orthogonalLoop=1;jettySize=auto;html=1;entryX=0.5;entryY=1;entryDx=0;entryDy=0;" parent="WIyWlLk6GJQsqaUBKTNV-1" source="v914vWunUFtBl5WVGQem-12" target="v914vWunUFtBl5WVGQem-14" edge="1">
          <mxGeometry relative="1" as="geometry" />
        </mxCell>
        <mxCell id="v914vWunUFtBl5WVGQem-12" value="Input:&lt;div&gt;Action&lt;/div&gt;" style="shape=parallelogram;perimeter=parallelogramPerimeter;whiteSpace=wrap;html=1;fixedSize=1;" parent="WIyWlLk6GJQsqaUBKTNV-1" vertex="1">
          <mxGeometry x="-290" y="1358.46" width="120" height="60" as="geometry" />
        </mxCell>
        <mxCell id="v914vWunUFtBl5WVGQem-13" style="edgeStyle=orthogonalEdgeStyle;rounded=0;orthogonalLoop=1;jettySize=auto;html=1;exitX=0.5;exitY=1;exitDx=0;exitDy=0;" parent="WIyWlLk6GJQsqaUBKTNV-1" source="v914vWunUFtBl5WVGQem-12" target="v914vWunUFtBl5WVGQem-12" edge="1">
          <mxGeometry relative="1" as="geometry" />
        </mxCell>
        <mxCell id="v914vWunUFtBl5WVGQem-20" style="edgeStyle=orthogonalEdgeStyle;rounded=0;orthogonalLoop=1;jettySize=auto;html=1;entryX=1;entryY=0.5;entryDx=0;entryDy=0;" parent="WIyWlLk6GJQsqaUBKTNV-1" source="v914vWunUFtBl5WVGQem-14" target="v914vWunUFtBl5WVGQem-15" edge="1">
          <mxGeometry relative="1" as="geometry" />
        </mxCell>
        <mxCell id="Try4QKZAS5DBBpIfiLRu-1" value="(N)" style="edgeLabel;html=1;align=center;verticalAlign=middle;resizable=0;points=[];" parent="v914vWunUFtBl5WVGQem-20" vertex="1" connectable="0">
          <mxGeometry x="-0.0984" y="1" relative="1" as="geometry">
            <mxPoint as="offset" />
          </mxGeometry>
        </mxCell>
        <mxCell id="v914vWunUFtBl5WVGQem-23" style="edgeStyle=orthogonalEdgeStyle;rounded=0;orthogonalLoop=1;jettySize=auto;html=1;entryX=0.5;entryY=1;entryDx=0;entryDy=0;" parent="WIyWlLk6GJQsqaUBKTNV-1" source="v914vWunUFtBl5WVGQem-14" target="v914vWunUFtBl5WVGQem-22" edge="1">
          <mxGeometry relative="1" as="geometry" />
        </mxCell>
        <mxCell id="Try4QKZAS5DBBpIfiLRu-0" value="(Y)" style="edgeLabel;html=1;align=center;verticalAlign=middle;resizable=0;points=[];" parent="v914vWunUFtBl5WVGQem-23" vertex="1" connectable="0">
          <mxGeometry x="-0.6863" y="-1" relative="1" as="geometry">
            <mxPoint as="offset" />
          </mxGeometry>
        </mxCell>
        <mxCell id="v914vWunUFtBl5WVGQem-14" value="&lt;div&gt;Action&lt;/div&gt;&lt;div&gt;Change Type?&lt;/div&gt;" style="rhombus;whiteSpace=wrap;html=1;" parent="WIyWlLk6GJQsqaUBKTNV-1" vertex="1">
          <mxGeometry x="-270" y="1218.46" width="80" height="80" as="geometry" />
        </mxCell>
        <mxCell id="v914vWunUFtBl5WVGQem-27" style="edgeStyle=orthogonalEdgeStyle;rounded=0;orthogonalLoop=1;jettySize=auto;html=1;entryX=0.5;entryY=1;entryDx=0;entryDy=0;" parent="WIyWlLk6GJQsqaUBKTNV-1" source="v914vWunUFtBl5WVGQem-15" target="v914vWunUFtBl5WVGQem-25" edge="1">
          <mxGeometry relative="1" as="geometry" />
        </mxCell>
        <mxCell id="Try4QKZAS5DBBpIfiLRu-2" value="(Y)" style="edgeLabel;html=1;align=center;verticalAlign=middle;resizable=0;points=[];" parent="v914vWunUFtBl5WVGQem-27" vertex="1" connectable="0">
          <mxGeometry x="-0.1651" y="2" relative="1" as="geometry">
            <mxPoint as="offset" />
          </mxGeometry>
        </mxCell>
        <mxCell id="Try4QKZAS5DBBpIfiLRu-3" style="edgeStyle=orthogonalEdgeStyle;rounded=0;orthogonalLoop=1;jettySize=auto;html=1;endArrow=none;startFill=0;" parent="WIyWlLk6GJQsqaUBKTNV-1" source="v914vWunUFtBl5WVGQem-15" edge="1">
          <mxGeometry relative="1" as="geometry">
            <mxPoint x="-530" y="910" as="targetPoint" />
            <Array as="points">
              <mxPoint x="-530" y="1259" />
            </Array>
          </mxGeometry>
        </mxCell>
        <mxCell id="Try4QKZAS5DBBpIfiLRu-4" value="(N)&lt;div&gt;Cancel Action&lt;/div&gt;" style="edgeLabel;html=1;align=center;verticalAlign=middle;resizable=0;points=[];" parent="Try4QKZAS5DBBpIfiLRu-3" vertex="1" connectable="0">
          <mxGeometry x="-0.8073" y="-2" relative="1" as="geometry">
            <mxPoint as="offset" />
          </mxGeometry>
        </mxCell>
        <mxCell id="v914vWunUFtBl5WVGQem-15" value="&lt;div&gt;Action&lt;/div&gt;&lt;div&gt;Change Text?&lt;/div&gt;" style="rhombus;whiteSpace=wrap;html=1;" parent="WIyWlLk6GJQsqaUBKTNV-1" vertex="1">
          <mxGeometry x="-450" y="1218.46" width="80" height="80" as="geometry" />
        </mxCell>
        <mxCell id="v914vWunUFtBl5WVGQem-22" value="Change (flip) type of the selected things" style="rounded=0;whiteSpace=wrap;html=1;" parent="WIyWlLk6GJQsqaUBKTNV-1" vertex="1">
          <mxGeometry x="-290" y="948.46" width="120" height="60" as="geometry" />
        </mxCell>
        <mxCell id="v914vWunUFtBl5WVGQem-24" style="edgeStyle=orthogonalEdgeStyle;rounded=0;orthogonalLoop=1;jettySize=auto;html=1;entryX=0;entryY=0.5;entryDx=0;entryDy=0;entryPerimeter=0;" parent="WIyWlLk6GJQsqaUBKTNV-1" source="v914vWunUFtBl5WVGQem-22" target="DLq4Pm85FSkG8CLuPHll-2" edge="1">
          <mxGeometry relative="1" as="geometry">
            <Array as="points">
              <mxPoint x="-230" y="910" />
            </Array>
          </mxGeometry>
        </mxCell>
        <mxCell id="v914vWunUFtBl5WVGQem-28" style="edgeStyle=orthogonalEdgeStyle;rounded=0;orthogonalLoop=1;jettySize=auto;html=1;entryX=0.5;entryY=1;entryDx=0;entryDy=0;" parent="WIyWlLk6GJQsqaUBKTNV-1" source="v914vWunUFtBl5WVGQem-25" target="v914vWunUFtBl5WVGQem-26" edge="1">
          <mxGeometry relative="1" as="geometry" />
        </mxCell>
        <mxCell id="v914vWunUFtBl5WVGQem-25" value="Input:&lt;div&gt;New Text&lt;/div&gt;" style="shape=parallelogram;perimeter=parallelogramPerimeter;whiteSpace=wrap;html=1;fixedSize=1;" parent="WIyWlLk6GJQsqaUBKTNV-1" vertex="1">
          <mxGeometry x="-470" y="1098.46" width="120" height="60" as="geometry" />
        </mxCell>
        <mxCell id="v914vWunUFtBl5WVGQem-26" value="Change text of the selected things" style="rounded=0;whiteSpace=wrap;html=1;" parent="WIyWlLk6GJQsqaUBKTNV-1" vertex="1">
          <mxGeometry x="-470" y="948.46" width="120" height="60" as="geometry" />
        </mxCell>
        <mxCell id="v914vWunUFtBl5WVGQem-29" style="edgeStyle=orthogonalEdgeStyle;rounded=0;orthogonalLoop=1;jettySize=auto;html=1;entryX=0;entryY=0.5;entryDx=0;entryDy=0;entryPerimeter=0;" parent="WIyWlLk6GJQsqaUBKTNV-1" source="v914vWunUFtBl5WVGQem-26" target="DLq4Pm85FSkG8CLuPHll-2" edge="1">
          <mxGeometry relative="1" as="geometry">
            <Array as="points">
              <mxPoint x="-410" y="910" />
            </Array>
          </mxGeometry>
        </mxCell>
        <mxCell id="v914vWunUFtBl5WVGQem-33" style="edgeStyle=orthogonalEdgeStyle;rounded=0;orthogonalLoop=1;jettySize=auto;html=1;" parent="WIyWlLk6GJQsqaUBKTNV-1" source="v914vWunUFtBl5WVGQem-31" target="DLq4Pm85FSkG8CLuPHll-9" edge="1">
          <mxGeometry relative="1" as="geometry" />
        </mxCell>
        <mxCell id="v914vWunUFtBl5WVGQem-54" value="(Y)" style="edgeLabel;html=1;align=center;verticalAlign=middle;resizable=0;points=[];" parent="v914vWunUFtBl5WVGQem-33" vertex="1" connectable="0">
          <mxGeometry x="-0.2037" y="-2" relative="1" as="geometry">
            <mxPoint as="offset" />
          </mxGeometry>
        </mxCell>
        <mxCell id="v914vWunUFtBl5WVGQem-31" value="&lt;div&gt;Action&lt;/div&gt;&lt;div&gt;Quit Program?&lt;/div&gt;" style="rhombus;whiteSpace=wrap;html=1;" parent="WIyWlLk6GJQsqaUBKTNV-1" vertex="1">
          <mxGeometry x="180" y="1740" width="80" height="80" as="geometry" />
        </mxCell>
        <mxCell id="v914vWunUFtBl5WVGQem-39" style="edgeStyle=orthogonalEdgeStyle;rounded=0;orthogonalLoop=1;jettySize=auto;html=1;entryX=1;entryY=0.5;entryDx=0;entryDy=0;" parent="WIyWlLk6GJQsqaUBKTNV-1" source="v914vWunUFtBl5WVGQem-35" target="v914vWunUFtBl5WVGQem-37" edge="1">
          <mxGeometry relative="1" as="geometry" />
        </mxCell>
        <mxCell id="v914vWunUFtBl5WVGQem-35" value="Input:&lt;div&gt;Select Things&lt;/div&gt;" style="shape=parallelogram;perimeter=parallelogramPerimeter;whiteSpace=wrap;html=1;fixedSize=1;" parent="WIyWlLk6GJQsqaUBKTNV-1" vertex="1">
          <mxGeometry y="1610" width="120" height="60" as="geometry" />
        </mxCell>
        <mxCell id="v914vWunUFtBl5WVGQem-40" style="edgeStyle=orthogonalEdgeStyle;rounded=0;orthogonalLoop=1;jettySize=auto;html=1;entryX=0.5;entryY=1;entryDx=0;entryDy=0;" parent="WIyWlLk6GJQsqaUBKTNV-1" source="v914vWunUFtBl5WVGQem-37" target="v914vWunUFtBl5WVGQem-35" edge="1">
          <mxGeometry relative="1" as="geometry">
            <Array as="points">
              <mxPoint x="-100" y="1690" />
              <mxPoint x="60" y="1690" />
            </Array>
          </mxGeometry>
        </mxCell>
        <mxCell id="Try4QKZAS5DBBpIfiLRu-8" value="(N)" style="edgeLabel;html=1;align=center;verticalAlign=middle;resizable=0;points=[];" parent="v914vWunUFtBl5WVGQem-40" vertex="1" connectable="0">
          <mxGeometry x="-0.1401" y="-1" relative="1" as="geometry">
            <mxPoint as="offset" />
          </mxGeometry>
        </mxCell>
        <mxCell id="v914vWunUFtBl5WVGQem-42" style="edgeStyle=orthogonalEdgeStyle;rounded=0;orthogonalLoop=1;jettySize=auto;html=1;entryX=1;entryY=0.5;entryDx=0;entryDy=0;" parent="WIyWlLk6GJQsqaUBKTNV-1" source="v914vWunUFtBl5WVGQem-37" target="v914vWunUFtBl5WVGQem-41" edge="1">
          <mxGeometry relative="1" as="geometry" />
        </mxCell>
        <mxCell id="Try4QKZAS5DBBpIfiLRu-7" value="(Y)" style="edgeLabel;html=1;align=center;verticalAlign=middle;resizable=0;points=[];" parent="v914vWunUFtBl5WVGQem-42" vertex="1" connectable="0">
          <mxGeometry x="0.0247" relative="1" as="geometry">
            <mxPoint as="offset" />
          </mxGeometry>
        </mxCell>
        <mxCell id="v914vWunUFtBl5WVGQem-37" value="&lt;div&gt;Is the things there?&lt;/div&gt;" style="rhombus;whiteSpace=wrap;html=1;" parent="WIyWlLk6GJQsqaUBKTNV-1" vertex="1">
          <mxGeometry x="-140" y="1600" width="80" height="80" as="geometry" />
        </mxCell>
        <mxCell id="v914vWunUFtBl5WVGQem-44" style="edgeStyle=orthogonalEdgeStyle;rounded=0;orthogonalLoop=1;jettySize=auto;html=1;entryX=0.5;entryY=1;entryDx=0;entryDy=0;" parent="WIyWlLk6GJQsqaUBKTNV-1" source="v914vWunUFtBl5WVGQem-41" target="v914vWunUFtBl5WVGQem-43" edge="1">
          <mxGeometry relative="1" as="geometry" />
        </mxCell>
        <mxCell id="v914vWunUFtBl5WVGQem-41" value="Input:&lt;div&gt;Confirmation&lt;/div&gt;" style="shape=parallelogram;perimeter=parallelogramPerimeter;whiteSpace=wrap;html=1;fixedSize=1;" parent="WIyWlLk6GJQsqaUBKTNV-1" vertex="1">
          <mxGeometry x="-320" y="1610" width="120" height="60" as="geometry" />
        </mxCell>
        <mxCell id="v914vWunUFtBl5WVGQem-46" style="edgeStyle=orthogonalEdgeStyle;rounded=0;orthogonalLoop=1;jettySize=auto;html=1;entryX=0.5;entryY=1;entryDx=0;entryDy=0;" parent="WIyWlLk6GJQsqaUBKTNV-1" source="v914vWunUFtBl5WVGQem-43" target="v914vWunUFtBl5WVGQem-45" edge="1">
          <mxGeometry relative="1" as="geometry" />
        </mxCell>
        <mxCell id="v914vWunUFtBl5WVGQem-47" value="(Y)" style="edgeLabel;html=1;align=center;verticalAlign=middle;resizable=0;points=[];" parent="v914vWunUFtBl5WVGQem-46" vertex="1" connectable="0">
          <mxGeometry x="-0.0149" y="-1" relative="1" as="geometry">
            <mxPoint as="offset" />
          </mxGeometry>
        </mxCell>
        <mxCell id="v914vWunUFtBl5WVGQem-43" value="&lt;div&gt;Input == sure&lt;/div&gt;" style="rhombus;whiteSpace=wrap;html=1;" parent="WIyWlLk6GJQsqaUBKTNV-1" vertex="1">
          <mxGeometry x="-634.29" y="1510" width="80" height="80" as="geometry" />
        </mxCell>
        <mxCell id="v914vWunUFtBl5WVGQem-45" value="Delete the things" style="rounded=0;whiteSpace=wrap;html=1;" parent="WIyWlLk6GJQsqaUBKTNV-1" vertex="1">
          <mxGeometry x="-654.29" y="1380" width="120" height="60" as="geometry" />
        </mxCell>
        <mxCell id="v914vWunUFtBl5WVGQem-48" style="edgeStyle=orthogonalEdgeStyle;rounded=0;orthogonalLoop=1;jettySize=auto;html=1;entryX=0;entryY=0.5;entryDx=0;entryDy=0;entryPerimeter=0;" parent="WIyWlLk6GJQsqaUBKTNV-1" source="v914vWunUFtBl5WVGQem-45" target="DLq4Pm85FSkG8CLuPHll-2" edge="1">
          <mxGeometry relative="1" as="geometry">
            <Array as="points">
              <mxPoint x="-594" y="910" />
            </Array>
          </mxGeometry>
        </mxCell>
        <mxCell id="v914vWunUFtBl5WVGQem-49" style="edgeStyle=orthogonalEdgeStyle;rounded=0;orthogonalLoop=1;jettySize=auto;html=1;entryX=0;entryY=0.5;entryDx=0;entryDy=0;entryPerimeter=0;" parent="WIyWlLk6GJQsqaUBKTNV-1" source="v914vWunUFtBl5WVGQem-43" target="DLq4Pm85FSkG8CLuPHll-2" edge="1">
          <mxGeometry relative="1" as="geometry">
            <Array as="points">
              <mxPoint x="-730" y="1550" />
              <mxPoint x="-730" y="910" />
            </Array>
          </mxGeometry>
        </mxCell>
        <mxCell id="v914vWunUFtBl5WVGQem-50" value="(N)&lt;div&gt;Cancel action&lt;/div&gt;" style="edgeLabel;html=1;align=center;verticalAlign=middle;resizable=0;points=[];" parent="v914vWunUFtBl5WVGQem-49" vertex="1" connectable="0">
          <mxGeometry x="-0.9308" y="1" relative="1" as="geometry">
            <mxPoint as="offset" />
          </mxGeometry>
        </mxCell>
        <mxCell id="Try4QKZAS5DBBpIfiLRu-11" style="edgeStyle=orthogonalEdgeStyle;rounded=0;orthogonalLoop=1;jettySize=auto;html=1;entryX=0.5;entryY=1;entryDx=0;entryDy=0;" parent="WIyWlLk6GJQsqaUBKTNV-1" source="Try4QKZAS5DBBpIfiLRu-9" target="05U-y7e1EcVLIiqIpHKX-31" edge="1">
          <mxGeometry relative="1" as="geometry" />
        </mxCell>
        <mxCell id="Try4QKZAS5DBBpIfiLRu-9" value="Input:&lt;div&gt;Direction&lt;/div&gt;" style="shape=parallelogram;perimeter=parallelogramPerimeter;whiteSpace=wrap;html=1;fixedSize=1;" parent="WIyWlLk6GJQsqaUBKTNV-1" vertex="1">
          <mxGeometry x="480" y="1109" width="120" height="60" as="geometry" />
        </mxCell>
        <mxCell id="Try4QKZAS5DBBpIfiLRu-14" style="edgeStyle=orthogonalEdgeStyle;rounded=0;orthogonalLoop=1;jettySize=auto;html=1;endArrow=none;startFill=0;" parent="WIyWlLk6GJQsqaUBKTNV-1" source="Try4QKZAS5DBBpIfiLRu-12" edge="1">
          <mxGeometry relative="1" as="geometry">
            <mxPoint x="920.0000000000005" y="819.9999999999998" as="targetPoint" />
            <Array as="points">
              <mxPoint x="1000" y="820" />
            </Array>
          </mxGeometry>
        </mxCell>
        <mxCell id="Try4QKZAS5DBBpIfiLRu-12" value="{date} =&amp;nbsp;&lt;div&gt;TODAY&lt;/div&gt;" style="rounded=0;whiteSpace=wrap;html=1;" parent="WIyWlLk6GJQsqaUBKTNV-1" vertex="1">
          <mxGeometry x="930" y="880" width="120" height="60" as="geometry" />
        </mxCell>
        <mxCell id="z9Cub5PZqjYy8kGDV3iE-0" value="Input:&lt;div&gt;Select Type&lt;/div&gt;" style="shape=parallelogram;perimeter=parallelogramPerimeter;whiteSpace=wrap;html=1;fixedSize=1;" vertex="1" parent="WIyWlLk6GJQsqaUBKTNV-1">
          <mxGeometry x="-110" y="1200" width="120" height="60" as="geometry" />
        </mxCell>
      </root>
    </mxGraphModel>
  </diagram>
  <diagram id="xJDYeB-IOkUR13DjITwm" name="ERD">
    <mxGraphModel dx="3161" dy="1042" grid="1" gridSize="10" guides="1" tooltips="1" connect="1" arrows="1" fold="1" page="1" pageScale="1" pageWidth="850" pageHeight="1100" math="0" shadow="0">
      <root>
        <mxCell id="0" />
        <mxCell id="1" parent="0" />
        <mxCell id="uxUu5kCntxrkXPOJbOJ6-1" value="things_tb" style="rounded=0;whiteSpace=wrap;html=1;" parent="1" vertex="1">
          <mxGeometry x="-190" y="660" width="120" height="60" as="geometry" />
        </mxCell>
        <mxCell id="uxUu5kCntxrkXPOJbOJ6-2" value="date_created" style="ellipse;whiteSpace=wrap;html=1;" parent="1" vertex="1">
          <mxGeometry x="-310" y="410" width="120" height="80" as="geometry" />
        </mxCell>
        <mxCell id="uxUu5kCntxrkXPOJbOJ6-3" value="" style="endArrow=none;html=1;rounded=0;entryX=0.5;entryY=1;entryDx=0;entryDy=0;exitX=0.5;exitY=0;exitDx=0;exitDy=0;" parent="1" source="uxUu5kCntxrkXPOJbOJ6-1" target="uxUu5kCntxrkXPOJbOJ6-2" edge="1">
          <mxGeometry width="50" height="50" relative="1" as="geometry">
            <mxPoint x="-50" y="530" as="sourcePoint" />
            <mxPoint y="480" as="targetPoint" />
          </mxGeometry>
        </mxCell>
        <mxCell id="uxUu5kCntxrkXPOJbOJ6-4" value="&lt;u&gt;&lt;b&gt;user_id&lt;/b&gt;&lt;/u&gt;" style="ellipse;whiteSpace=wrap;html=1;" parent="1" vertex="1">
          <mxGeometry x="-395" y="490" width="120" height="80" as="geometry" />
        </mxCell>
        <mxCell id="uxUu5kCntxrkXPOJbOJ6-5" value="" style="endArrow=none;html=1;rounded=0;entryX=1;entryY=1;entryDx=0;entryDy=0;exitX=0.5;exitY=0;exitDx=0;exitDy=0;" parent="1" source="uxUu5kCntxrkXPOJbOJ6-1" target="uxUu5kCntxrkXPOJbOJ6-4" edge="1">
          <mxGeometry width="50" height="50" relative="1" as="geometry">
            <mxPoint x="-70" y="560" as="sourcePoint" />
            <mxPoint x="-149" y="427" as="targetPoint" />
          </mxGeometry>
        </mxCell>
        <mxCell id="uxUu5kCntxrkXPOJbOJ6-6" value="type" style="ellipse;whiteSpace=wrap;html=1;" parent="1" vertex="1">
          <mxGeometry x="-65" y="420" width="120" height="80" as="geometry" />
        </mxCell>
        <mxCell id="uxUu5kCntxrkXPOJbOJ6-7" value="" style="endArrow=none;html=1;rounded=0;entryX=0.283;entryY=0.952;entryDx=0;entryDy=0;exitX=0.5;exitY=0;exitDx=0;exitDy=0;entryPerimeter=0;" parent="1" source="uxUu5kCntxrkXPOJbOJ6-1" target="uxUu5kCntxrkXPOJbOJ6-6" edge="1">
          <mxGeometry width="50" height="50" relative="1" as="geometry">
            <mxPoint x="-70" y="560" as="sourcePoint" />
            <mxPoint x="-70" y="430" as="targetPoint" />
          </mxGeometry>
        </mxCell>
        <mxCell id="uxUu5kCntxrkXPOJbOJ6-8" value="text" style="ellipse;whiteSpace=wrap;html=1;" parent="1" vertex="1">
          <mxGeometry x="-185" y="360" width="120" height="80" as="geometry" />
        </mxCell>
        <mxCell id="uxUu5kCntxrkXPOJbOJ6-9" value="" style="endArrow=none;html=1;rounded=0;entryX=0.5;entryY=1;entryDx=0;entryDy=0;exitX=0.5;exitY=0;exitDx=0;exitDy=0;" parent="1" source="uxUu5kCntxrkXPOJbOJ6-1" target="uxUu5kCntxrkXPOJbOJ6-8" edge="1">
          <mxGeometry width="50" height="50" relative="1" as="geometry">
            <mxPoint x="-70" y="560" as="sourcePoint" />
            <mxPoint x="-2" y="448" as="targetPoint" />
          </mxGeometry>
        </mxCell>
        <mxCell id="uxUu5kCntxrkXPOJbOJ6-14" value="status" style="ellipse;whiteSpace=wrap;html=1;" parent="1" vertex="1">
          <mxGeometry x="-190" y="1140" width="120" height="80" as="geometry" />
        </mxCell>
        <mxCell id="uxUu5kCntxrkXPOJbOJ6-19" value="todo_data_tb" style="rounded=0;whiteSpace=wrap;html=1;" parent="1" vertex="1">
          <mxGeometry x="-190" y="970" width="120" height="60" as="geometry" />
        </mxCell>
        <mxCell id="uxUu5kCntxrkXPOJbOJ6-22" value="&lt;u&gt;&lt;b&gt;things_id&lt;/b&gt;&lt;/u&gt;" style="ellipse;whiteSpace=wrap;html=1;" parent="1" vertex="1">
          <mxGeometry x="-55" y="1140" width="120" height="80" as="geometry" />
        </mxCell>
        <mxCell id="uxUu5kCntxrkXPOJbOJ6-23" value="" style="endArrow=none;html=1;rounded=0;entryX=0.5;entryY=0;entryDx=0;entryDy=0;exitX=0.5;exitY=1;exitDx=0;exitDy=0;" parent="1" source="uxUu5kCntxrkXPOJbOJ6-19" target="uxUu5kCntxrkXPOJbOJ6-22" edge="1">
          <mxGeometry width="50" height="50" relative="1" as="geometry">
            <mxPoint x="-75" y="980" as="sourcePoint" />
            <mxPoint x="-15" y="920" as="targetPoint" />
          </mxGeometry>
        </mxCell>
        <mxCell id="uxUu5kCntxrkXPOJbOJ6-24" value="deadline" style="ellipse;whiteSpace=wrap;html=1;" parent="1" vertex="1">
          <mxGeometry x="-325" y="1140" width="120" height="80" as="geometry" />
        </mxCell>
        <mxCell id="uxUu5kCntxrkXPOJbOJ6-25" value="" style="endArrow=none;html=1;rounded=0;entryX=0.5;entryY=0;entryDx=0;entryDy=0;exitX=0.5;exitY=1;exitDx=0;exitDy=0;" parent="1" source="uxUu5kCntxrkXPOJbOJ6-19" target="uxUu5kCntxrkXPOJbOJ6-24" edge="1">
          <mxGeometry width="50" height="50" relative="1" as="geometry">
            <mxPoint x="-2" y="1080" as="sourcePoint" />
            <mxPoint x="-85" y="890" as="targetPoint" />
          </mxGeometry>
        </mxCell>
        <mxCell id="unyg1yfrWTENmKlDRKN1-2" value="&lt;b&gt;&lt;u&gt;things_id&lt;/u&gt;&lt;/b&gt;" style="ellipse;whiteSpace=wrap;html=1;" vertex="1" parent="1">
          <mxGeometry x="20" y="490" width="120" height="80" as="geometry" />
        </mxCell>
        <mxCell id="unyg1yfrWTENmKlDRKN1-3" value="" style="endArrow=none;html=1;rounded=0;entryX=0;entryY=1;entryDx=0;entryDy=0;exitX=0.5;exitY=0;exitDx=0;exitDy=0;" edge="1" parent="1" source="uxUu5kCntxrkXPOJbOJ6-1" target="unyg1yfrWTENmKlDRKN1-2">
          <mxGeometry width="50" height="50" relative="1" as="geometry">
            <mxPoint x="-120" y="670" as="sourcePoint" />
            <mxPoint x="-26" y="536" as="targetPoint" />
          </mxGeometry>
        </mxCell>
        <mxCell id="unyg1yfrWTENmKlDRKN1-4" value="shoping_data_tb" style="rounded=0;whiteSpace=wrap;html=1;" vertex="1" parent="1">
          <mxGeometry x="290" y="980" width="120" height="60" as="geometry" />
        </mxCell>
        <mxCell id="unyg1yfrWTENmKlDRKN1-12" value="&lt;u&gt;&lt;b&gt;things_id&lt;/b&gt;&lt;/u&gt;" style="ellipse;whiteSpace=wrap;html=1;" vertex="1" parent="1">
          <mxGeometry x="490" y="1140" width="120" height="80" as="geometry" />
        </mxCell>
        <mxCell id="unyg1yfrWTENmKlDRKN1-13" value="status" style="ellipse;whiteSpace=wrap;html=1;" vertex="1" parent="1">
          <mxGeometry x="360" y="1140" width="120" height="80" as="geometry" />
        </mxCell>
        <mxCell id="unyg1yfrWTENmKlDRKN1-14" value="quantity" style="ellipse;whiteSpace=wrap;html=1;" vertex="1" parent="1">
          <mxGeometry x="230" y="1140" width="120" height="80" as="geometry" />
        </mxCell>
        <mxCell id="unyg1yfrWTENmKlDRKN1-15" value="price" style="ellipse;whiteSpace=wrap;html=1;" vertex="1" parent="1">
          <mxGeometry x="100" y="1140" width="120" height="80" as="geometry" />
        </mxCell>
        <mxCell id="unyg1yfrWTENmKlDRKN1-18" value="" style="endArrow=none;html=1;rounded=0;entryX=0.5;entryY=0;entryDx=0;entryDy=0;exitX=0.5;exitY=1;exitDx=0;exitDy=0;" edge="1" parent="1" source="unyg1yfrWTENmKlDRKN1-4" target="unyg1yfrWTENmKlDRKN1-12">
          <mxGeometry width="50" height="50" relative="1" as="geometry">
            <mxPoint x="653" y="490" as="sourcePoint" />
            <mxPoint x="770" y="580" as="targetPoint" />
          </mxGeometry>
        </mxCell>
        <mxCell id="unyg1yfrWTENmKlDRKN1-19" value="" style="endArrow=none;html=1;rounded=0;entryX=0.5;entryY=0;entryDx=0;entryDy=0;exitX=0.5;exitY=1;exitDx=0;exitDy=0;" edge="1" parent="1" source="unyg1yfrWTENmKlDRKN1-4" target="unyg1yfrWTENmKlDRKN1-13">
          <mxGeometry width="50" height="50" relative="1" as="geometry">
            <mxPoint x="630" y="860" as="sourcePoint" />
            <mxPoint x="740" y="720" as="targetPoint" />
          </mxGeometry>
        </mxCell>
        <mxCell id="unyg1yfrWTENmKlDRKN1-20" value="" style="endArrow=none;html=1;rounded=0;entryX=0.5;entryY=0;entryDx=0;entryDy=0;exitX=0.5;exitY=1;exitDx=0;exitDy=0;" edge="1" parent="1" source="unyg1yfrWTENmKlDRKN1-4" target="unyg1yfrWTENmKlDRKN1-14">
          <mxGeometry width="50" height="50" relative="1" as="geometry">
            <mxPoint x="630" y="860" as="sourcePoint" />
            <mxPoint x="740" y="820" as="targetPoint" />
          </mxGeometry>
        </mxCell>
        <mxCell id="unyg1yfrWTENmKlDRKN1-21" value="" style="endArrow=none;html=1;rounded=0;entryX=0.5;entryY=0;entryDx=0;entryDy=0;exitX=0.5;exitY=1;exitDx=0;exitDy=0;" edge="1" parent="1" source="unyg1yfrWTENmKlDRKN1-4" target="unyg1yfrWTENmKlDRKN1-15">
          <mxGeometry width="50" height="50" relative="1" as="geometry">
            <mxPoint x="630" y="860" as="sourcePoint" />
            <mxPoint x="740" y="920" as="targetPoint" />
          </mxGeometry>
        </mxCell>
        <mxCell id="unyg1yfrWTENmKlDRKN1-23" value="event_data_tb" style="rounded=0;whiteSpace=wrap;html=1;" vertex="1" parent="1">
          <mxGeometry x="-580" y="970" width="120" height="60" as="geometry" />
        </mxCell>
        <mxCell id="unyg1yfrWTENmKlDRKN1-24" value="&lt;u&gt;&lt;b&gt;things_id&lt;/b&gt;&lt;/u&gt;" style="ellipse;whiteSpace=wrap;html=1;" vertex="1" parent="1">
          <mxGeometry x="-500" y="1140" width="120" height="80" as="geometry" />
        </mxCell>
        <mxCell id="unyg1yfrWTENmKlDRKN1-25" value="datetime_event" style="ellipse;whiteSpace=wrap;html=1;" vertex="1" parent="1">
          <mxGeometry x="-660" y="1140" width="120" height="80" as="geometry" />
        </mxCell>
        <mxCell id="unyg1yfrWTENmKlDRKN1-26" value="" style="endArrow=none;html=1;rounded=0;entryX=0.5;entryY=0;entryDx=0;entryDy=0;exitX=0.5;exitY=1;exitDx=0;exitDy=0;" edge="1" parent="1" source="unyg1yfrWTENmKlDRKN1-23" target="unyg1yfrWTENmKlDRKN1-24">
          <mxGeometry width="50" height="50" relative="1" as="geometry">
            <mxPoint x="-660" y="850" as="sourcePoint" />
            <mxPoint x="-552" y="1002" as="targetPoint" />
          </mxGeometry>
        </mxCell>
        <mxCell id="unyg1yfrWTENmKlDRKN1-27" value="" style="endArrow=none;html=1;rounded=0;entryX=0.5;entryY=0;entryDx=0;entryDy=0;exitX=0.5;exitY=1;exitDx=0;exitDy=0;" edge="1" parent="1" source="unyg1yfrWTENmKlDRKN1-23" target="unyg1yfrWTENmKlDRKN1-25">
          <mxGeometry width="50" height="50" relative="1" as="geometry">
            <mxPoint x="-690" y="1160" as="sourcePoint" />
            <mxPoint x="-550" y="1170" as="targetPoint" />
          </mxGeometry>
        </mxCell>
        <mxCell id="unyg1yfrWTENmKlDRKN1-31" value="" style="endArrow=none;html=1;rounded=0;entryX=0;entryY=0.5;entryDx=0;entryDy=0;exitX=0.5;exitY=1;exitDx=0;exitDy=0;" edge="1" parent="1" source="uxUu5kCntxrkXPOJbOJ6-1" target="unyg1yfrWTENmKlDRKN1-28">
          <mxGeometry width="50" height="50" relative="1" as="geometry">
            <mxPoint x="-120" y="670" as="sourcePoint" />
            <mxPoint x="48" y="528" as="targetPoint" />
          </mxGeometry>
        </mxCell>
        <mxCell id="unyg1yfrWTENmKlDRKN1-32" value="" style="group" vertex="1" connectable="0" parent="1">
          <mxGeometry x="-170" y="800" width="80" height="60" as="geometry" />
        </mxCell>
        <mxCell id="unyg1yfrWTENmKlDRKN1-28" value="" style="triangle;whiteSpace=wrap;html=1;rotation=90;" vertex="1" parent="unyg1yfrWTENmKlDRKN1-32">
          <mxGeometry x="10" y="-10" width="60" height="80" as="geometry" />
        </mxCell>
        <mxCell id="unyg1yfrWTENmKlDRKN1-29" value="Is A" style="text;html=1;align=center;verticalAlign=middle;resizable=0;points=[];autosize=1;strokeColor=none;fillColor=none;" vertex="1" parent="unyg1yfrWTENmKlDRKN1-32">
          <mxGeometry x="20" y="10" width="40" height="30" as="geometry" />
        </mxCell>
        <mxCell id="unyg1yfrWTENmKlDRKN1-33" value="" style="endArrow=none;html=1;rounded=0;entryX=1;entryY=0.5;entryDx=0;entryDy=0;exitX=0.5;exitY=0;exitDx=0;exitDy=0;" edge="1" parent="1" source="unyg1yfrWTENmKlDRKN1-23" target="unyg1yfrWTENmKlDRKN1-28">
          <mxGeometry width="50" height="50" relative="1" as="geometry">
            <mxPoint x="-270" y="910" as="sourcePoint" />
            <mxPoint x="-120" y="810" as="targetPoint" />
          </mxGeometry>
        </mxCell>
        <mxCell id="unyg1yfrWTENmKlDRKN1-34" value="" style="endArrow=none;html=1;rounded=0;exitX=0.5;exitY=0;exitDx=0;exitDy=0;" edge="1" parent="1" source="uxUu5kCntxrkXPOJbOJ6-19">
          <mxGeometry width="50" height="50" relative="1" as="geometry">
            <mxPoint x="-130" y="960" as="sourcePoint" />
            <mxPoint x="-130" y="860" as="targetPoint" />
          </mxGeometry>
        </mxCell>
        <mxCell id="unyg1yfrWTENmKlDRKN1-35" value="" style="endArrow=none;html=1;rounded=0;entryX=0.5;entryY=0;entryDx=0;entryDy=0;" edge="1" parent="1" target="uxUu5kCntxrkXPOJbOJ6-14">
          <mxGeometry width="50" height="50" relative="1" as="geometry">
            <mxPoint x="-130" y="1030" as="sourcePoint" />
            <mxPoint x="115" y="980" as="targetPoint" />
          </mxGeometry>
        </mxCell>
        <mxCell id="unyg1yfrWTENmKlDRKN1-36" value="" style="endArrow=none;html=1;rounded=0;entryX=1;entryY=0.5;entryDx=0;entryDy=0;exitX=0.5;exitY=0;exitDx=0;exitDy=0;" edge="1" parent="1" source="unyg1yfrWTENmKlDRKN1-4" target="unyg1yfrWTENmKlDRKN1-28">
          <mxGeometry width="50" height="50" relative="1" as="geometry">
            <mxPoint x="-510" y="980" as="sourcePoint" />
            <mxPoint x="-120" y="870" as="targetPoint" />
          </mxGeometry>
        </mxCell>
        <mxCell id="unyg1yfrWTENmKlDRKN1-37" value="user_tb" style="rounded=0;whiteSpace=wrap;html=1;" vertex="1" parent="1">
          <mxGeometry x="-695" y="660" width="120" height="60" as="geometry" />
        </mxCell>
        <mxCell id="unyg1yfrWTENmKlDRKN1-38" value="&lt;u&gt;&lt;b&gt;user_id&lt;/b&gt;&lt;/u&gt;" style="ellipse;whiteSpace=wrap;html=1;" vertex="1" parent="1">
          <mxGeometry x="-805" y="540" width="120" height="80" as="geometry" />
        </mxCell>
        <mxCell id="unyg1yfrWTENmKlDRKN1-39" value="name" style="ellipse;whiteSpace=wrap;html=1;" vertex="1" parent="1">
          <mxGeometry x="-695" y="480" width="120" height="80" as="geometry" />
        </mxCell>
        <mxCell id="unyg1yfrWTENmKlDRKN1-40" value="password" style="ellipse;whiteSpace=wrap;html=1;" vertex="1" parent="1">
          <mxGeometry x="-585" y="540" width="120" height="80" as="geometry" />
        </mxCell>
        <mxCell id="unyg1yfrWTENmKlDRKN1-41" value="" style="endArrow=none;html=1;rounded=0;entryX=0.5;entryY=0;entryDx=0;entryDy=0;exitX=0.5;exitY=1;exitDx=0;exitDy=0;" edge="1" parent="1" source="unyg1yfrWTENmKlDRKN1-38" target="unyg1yfrWTENmKlDRKN1-37">
          <mxGeometry width="50" height="50" relative="1" as="geometry">
            <mxPoint x="-35" y="660" as="sourcePoint" />
            <mxPoint x="-198" y="558" as="targetPoint" />
          </mxGeometry>
        </mxCell>
        <mxCell id="unyg1yfrWTENmKlDRKN1-42" value="" style="endArrow=none;html=1;rounded=0;entryX=0.5;entryY=0;entryDx=0;entryDy=0;exitX=0.5;exitY=1;exitDx=0;exitDy=0;" edge="1" parent="1" source="unyg1yfrWTENmKlDRKN1-39" target="unyg1yfrWTENmKlDRKN1-37">
          <mxGeometry width="50" height="50" relative="1" as="geometry">
            <mxPoint x="-765" y="640" as="sourcePoint" />
            <mxPoint x="-625" y="670" as="targetPoint" />
          </mxGeometry>
        </mxCell>
        <mxCell id="unyg1yfrWTENmKlDRKN1-43" value="" style="endArrow=none;html=1;rounded=0;entryX=0.5;entryY=0;entryDx=0;entryDy=0;exitX=0.5;exitY=1;exitDx=0;exitDy=0;" edge="1" parent="1" source="unyg1yfrWTENmKlDRKN1-40" target="unyg1yfrWTENmKlDRKN1-37">
          <mxGeometry width="50" height="50" relative="1" as="geometry">
            <mxPoint x="-645" y="570" as="sourcePoint" />
            <mxPoint x="-625" y="670" as="targetPoint" />
          </mxGeometry>
        </mxCell>
        <mxCell id="unyg1yfrWTENmKlDRKN1-44" value="write a" style="rhombus;whiteSpace=wrap;html=1;" vertex="1" parent="1">
          <mxGeometry x="-430" y="650" width="80" height="80" as="geometry" />
        </mxCell>
        <mxCell id="unyg1yfrWTENmKlDRKN1-45" value="" style="endArrow=none;html=1;rounded=0;entryX=1;entryY=0.5;entryDx=0;entryDy=0;exitX=0;exitY=0.5;exitDx=0;exitDy=0;" edge="1" parent="1" source="unyg1yfrWTENmKlDRKN1-44" target="unyg1yfrWTENmKlDRKN1-37">
          <mxGeometry width="50" height="50" relative="1" as="geometry">
            <mxPoint x="-600" y="640" as="sourcePoint" />
            <mxPoint x="-710" y="680" as="targetPoint" />
          </mxGeometry>
        </mxCell>
        <mxCell id="unyg1yfrWTENmKlDRKN1-48" value="(1)" style="edgeLabel;html=1;align=center;verticalAlign=middle;resizable=0;points=[];" vertex="1" connectable="0" parent="unyg1yfrWTENmKlDRKN1-45">
          <mxGeometry x="-0.0462" y="2" relative="1" as="geometry">
            <mxPoint as="offset" />
          </mxGeometry>
        </mxCell>
        <mxCell id="unyg1yfrWTENmKlDRKN1-46" value="" style="endArrow=none;html=1;rounded=0;entryX=1;entryY=0.5;entryDx=0;entryDy=0;exitX=0;exitY=0.5;exitDx=0;exitDy=0;" edge="1" parent="1" source="uxUu5kCntxrkXPOJbOJ6-1" target="unyg1yfrWTENmKlDRKN1-44">
          <mxGeometry width="50" height="50" relative="1" as="geometry">
            <mxPoint x="-455" y="700" as="sourcePoint" />
            <mxPoint x="-650" y="710" as="targetPoint" />
          </mxGeometry>
        </mxCell>
        <mxCell id="unyg1yfrWTENmKlDRKN1-47" value="(N)" style="edgeLabel;html=1;align=center;verticalAlign=middle;resizable=0;points=[];" vertex="1" connectable="0" parent="unyg1yfrWTENmKlDRKN1-46">
          <mxGeometry x="0.0809" y="-1" relative="1" as="geometry">
            <mxPoint as="offset" />
          </mxGeometry>
        </mxCell>
      </root>
    </mxGraphModel>
  </diagram>
  <diagram id="IlHP4xXZBfVgVxfa-aqU" name="ERD 2">
    <mxGraphModel dx="2156" dy="589" grid="1" gridSize="10" guides="1" tooltips="1" connect="1" arrows="1" fold="1" page="1" pageScale="1" pageWidth="850" pageHeight="1100" math="0" shadow="0">
      <root>
        <mxCell id="0" />
        <mxCell id="1" parent="0" />
        <mxCell id="XhaklSJaQbSjjz6L1v3r-1" value="things_tb" style="shape=table;startSize=30;container=1;collapsible=0;childLayout=tableLayout;fixedRows=1;rowLines=0;fontStyle=0;strokeColor=default;fontSize=16;" parent="1" vertex="1">
          <mxGeometry x="70" y="230" width="330" height="243.00000000000034" as="geometry" />
        </mxCell>
        <mxCell id="XhaklSJaQbSjjz6L1v3r-2" value="" style="shape=tableRow;horizontal=0;startSize=0;swimlaneHead=0;swimlaneBody=0;top=0;left=0;bottom=0;right=0;collapsible=0;dropTarget=0;fillColor=none;points=[[0,0.5],[1,0.5]];portConstraint=eastwest;strokeColor=inherit;fontSize=16;" parent="XhaklSJaQbSjjz6L1v3r-1" vertex="1">
          <mxGeometry y="30" width="330" height="30" as="geometry" />
        </mxCell>
        <mxCell id="XhaklSJaQbSjjz6L1v3r-3" value="&lt;b&gt;&lt;u&gt;things_id&lt;/u&gt;&lt;/b&gt;" style="shape=partialRectangle;html=1;whiteSpace=wrap;connectable=0;fillColor=none;top=0;left=0;bottom=0;right=0;overflow=hidden;pointerEvents=1;strokeColor=inherit;fontSize=16;" parent="XhaklSJaQbSjjz6L1v3r-2" vertex="1">
          <mxGeometry width="110" height="30" as="geometry">
            <mxRectangle width="110" height="30" as="alternateBounds" />
          </mxGeometry>
        </mxCell>
        <mxCell id="XhaklSJaQbSjjz6L1v3r-4" value="int AUTO_INCREMENT" style="shape=partialRectangle;html=1;whiteSpace=wrap;connectable=0;fillColor=none;top=0;left=0;bottom=0;right=0;align=left;spacingLeft=6;overflow=hidden;strokeColor=inherit;fontSize=16;" parent="XhaklSJaQbSjjz6L1v3r-2" vertex="1">
          <mxGeometry x="110" width="220" height="30" as="geometry">
            <mxRectangle width="220" height="30" as="alternateBounds" />
          </mxGeometry>
        </mxCell>
        <mxCell id="XhaklSJaQbSjjz6L1v3r-5" value="" style="shape=tableRow;horizontal=0;startSize=0;swimlaneHead=0;swimlaneBody=0;top=0;left=0;bottom=0;right=0;collapsible=0;dropTarget=0;fillColor=none;points=[[0,0.5],[1,0.5]];portConstraint=eastwest;strokeColor=inherit;fontSize=16;" parent="XhaklSJaQbSjjz6L1v3r-1" vertex="1">
          <mxGeometry y="60" width="330" height="90" as="geometry" />
        </mxCell>
        <mxCell id="XhaklSJaQbSjjz6L1v3r-6" value="type" style="shape=partialRectangle;html=1;whiteSpace=wrap;connectable=0;fillColor=none;top=0;left=0;bottom=0;right=0;overflow=hidden;strokeColor=inherit;fontSize=16;" parent="XhaklSJaQbSjjz6L1v3r-5" vertex="1">
          <mxGeometry width="110" height="90" as="geometry">
            <mxRectangle width="110" height="90" as="alternateBounds" />
          </mxGeometry>
        </mxCell>
        <mxCell id="XhaklSJaQbSjjz6L1v3r-7" value="varchar(5)&amp;nbsp;&lt;div&gt;enum(&quot;NOTES&quot;, &quot;TODO&quot;, &quot;EVENT&quot;, &quot;SHOPPING&quot;)&lt;/div&gt;" style="shape=partialRectangle;html=1;whiteSpace=wrap;connectable=0;fillColor=none;top=0;left=0;bottom=0;right=0;align=left;spacingLeft=6;overflow=hidden;strokeColor=inherit;fontSize=16;" parent="XhaklSJaQbSjjz6L1v3r-5" vertex="1">
          <mxGeometry x="110" width="220" height="90" as="geometry">
            <mxRectangle width="220" height="90" as="alternateBounds" />
          </mxGeometry>
        </mxCell>
        <mxCell id="XhaklSJaQbSjjz6L1v3r-8" value="" style="shape=tableRow;horizontal=0;startSize=0;swimlaneHead=0;swimlaneBody=0;top=0;left=0;bottom=0;right=0;collapsible=0;dropTarget=0;fillColor=none;points=[[0,0.5],[1,0.5]];portConstraint=eastwest;strokeColor=inherit;fontSize=16;" parent="XhaklSJaQbSjjz6L1v3r-1" vertex="1">
          <mxGeometry y="150" width="330" height="30" as="geometry" />
        </mxCell>
        <mxCell id="XhaklSJaQbSjjz6L1v3r-9" value="date_created" style="shape=partialRectangle;html=1;whiteSpace=wrap;connectable=0;fillColor=none;top=0;left=0;bottom=0;right=0;overflow=hidden;strokeColor=inherit;fontSize=16;" parent="XhaklSJaQbSjjz6L1v3r-8" vertex="1">
          <mxGeometry width="110" height="30" as="geometry">
            <mxRectangle width="110" height="30" as="alternateBounds" />
          </mxGeometry>
        </mxCell>
        <mxCell id="XhaklSJaQbSjjz6L1v3r-10" value="date" style="shape=partialRectangle;html=1;whiteSpace=wrap;connectable=0;fillColor=none;top=0;left=0;bottom=0;right=0;align=left;spacingLeft=6;overflow=hidden;strokeColor=inherit;fontSize=16;" parent="XhaklSJaQbSjjz6L1v3r-8" vertex="1">
          <mxGeometry x="110" width="220" height="30" as="geometry">
            <mxRectangle width="220" height="30" as="alternateBounds" />
          </mxGeometry>
        </mxCell>
        <mxCell id="fhsTCDuywxygtsPq7miY-19" value="" style="shape=tableRow;horizontal=0;startSize=0;swimlaneHead=0;swimlaneBody=0;top=0;left=0;bottom=0;right=0;collapsible=0;dropTarget=0;fillColor=none;points=[[0,0.5],[1,0.5]];portConstraint=eastwest;strokeColor=inherit;fontSize=16;" parent="XhaklSJaQbSjjz6L1v3r-1" vertex="1">
          <mxGeometry y="180" width="330" height="30" as="geometry" />
        </mxCell>
        <mxCell id="fhsTCDuywxygtsPq7miY-20" value="text" style="shape=partialRectangle;html=1;whiteSpace=wrap;connectable=0;fillColor=none;top=0;left=0;bottom=0;right=0;overflow=hidden;strokeColor=inherit;fontSize=16;" parent="fhsTCDuywxygtsPq7miY-19" vertex="1">
          <mxGeometry width="110" height="30" as="geometry">
            <mxRectangle width="110" height="30" as="alternateBounds" />
          </mxGeometry>
        </mxCell>
        <mxCell id="fhsTCDuywxygtsPq7miY-21" value="varchar(1000)" style="shape=partialRectangle;html=1;whiteSpace=wrap;connectable=0;fillColor=none;top=0;left=0;bottom=0;right=0;align=left;spacingLeft=6;overflow=hidden;strokeColor=inherit;fontSize=16;" parent="fhsTCDuywxygtsPq7miY-19" vertex="1">
          <mxGeometry x="110" width="220" height="30" as="geometry">
            <mxRectangle width="220" height="30" as="alternateBounds" />
          </mxGeometry>
        </mxCell>
        <mxCell id="UB7Ehv7AJvXbvg42NVE6-2" value="" style="shape=tableRow;horizontal=0;startSize=0;swimlaneHead=0;swimlaneBody=0;top=0;left=0;bottom=0;right=0;collapsible=0;dropTarget=0;fillColor=none;points=[[0,0.5],[1,0.5]];portConstraint=eastwest;strokeColor=inherit;fontSize=16;" parent="XhaklSJaQbSjjz6L1v3r-1" vertex="1">
          <mxGeometry y="210" width="330" height="30" as="geometry" />
        </mxCell>
        <mxCell id="UB7Ehv7AJvXbvg42NVE6-3" value="&lt;b&gt;&lt;u&gt;user_id&lt;/u&gt;&lt;/b&gt;" style="shape=partialRectangle;html=1;whiteSpace=wrap;connectable=0;fillColor=none;top=0;left=0;bottom=0;right=0;overflow=hidden;pointerEvents=1;strokeColor=inherit;fontSize=16;" parent="UB7Ehv7AJvXbvg42NVE6-2" vertex="1">
          <mxGeometry width="110" height="30" as="geometry">
            <mxRectangle width="110" height="30" as="alternateBounds" />
          </mxGeometry>
        </mxCell>
        <mxCell id="UB7Ehv7AJvXbvg42NVE6-4" value="int FOREIGN KEY" style="shape=partialRectangle;html=1;whiteSpace=wrap;connectable=0;fillColor=none;top=0;left=0;bottom=0;right=0;align=left;spacingLeft=6;overflow=hidden;strokeColor=inherit;fontSize=16;" parent="UB7Ehv7AJvXbvg42NVE6-2" vertex="1">
          <mxGeometry x="110" width="220" height="30" as="geometry">
            <mxRectangle width="220" height="30" as="alternateBounds" />
          </mxGeometry>
        </mxCell>
        <mxCell id="gz-zTFn6-FiwdZ3l8_LW-1" value="todo_data_tb" style="shape=table;startSize=30;container=1;collapsible=0;childLayout=tableLayout;fixedRows=1;rowLines=0;fontStyle=0;strokeColor=default;fontSize=16;" parent="1" vertex="1">
          <mxGeometry x="500" y="230" width="380" height="153.00000000000034" as="geometry" />
        </mxCell>
        <mxCell id="gz-zTFn6-FiwdZ3l8_LW-2" value="" style="shape=tableRow;horizontal=0;startSize=0;swimlaneHead=0;swimlaneBody=0;top=0;left=0;bottom=0;right=0;collapsible=0;dropTarget=0;fillColor=none;points=[[0,0.5],[1,0.5]];portConstraint=eastwest;strokeColor=inherit;fontSize=16;" parent="gz-zTFn6-FiwdZ3l8_LW-1" vertex="1">
          <mxGeometry y="30" width="380" height="30" as="geometry" />
        </mxCell>
        <mxCell id="gz-zTFn6-FiwdZ3l8_LW-3" value="&lt;b&gt;&lt;u&gt;things_id&lt;/u&gt;&lt;/b&gt;" style="shape=partialRectangle;html=1;whiteSpace=wrap;connectable=0;fillColor=none;top=0;left=0;bottom=0;right=0;overflow=hidden;pointerEvents=1;strokeColor=inherit;fontSize=16;" parent="gz-zTFn6-FiwdZ3l8_LW-2" vertex="1">
          <mxGeometry width="110" height="30" as="geometry">
            <mxRectangle width="110" height="30" as="alternateBounds" />
          </mxGeometry>
        </mxCell>
        <mxCell id="gz-zTFn6-FiwdZ3l8_LW-4" value="int FOREIGN KEY" style="shape=partialRectangle;html=1;whiteSpace=wrap;connectable=0;fillColor=none;top=0;left=0;bottom=0;right=0;align=left;spacingLeft=6;overflow=hidden;strokeColor=inherit;fontSize=16;" parent="gz-zTFn6-FiwdZ3l8_LW-2" vertex="1">
          <mxGeometry x="110" width="270" height="30" as="geometry">
            <mxRectangle width="270" height="30" as="alternateBounds" />
          </mxGeometry>
        </mxCell>
        <mxCell id="gz-zTFn6-FiwdZ3l8_LW-5" value="" style="shape=tableRow;horizontal=0;startSize=0;swimlaneHead=0;swimlaneBody=0;top=0;left=0;bottom=0;right=0;collapsible=0;dropTarget=0;fillColor=none;points=[[0,0.5],[1,0.5]];portConstraint=eastwest;strokeColor=inherit;fontSize=16;" parent="gz-zTFn6-FiwdZ3l8_LW-1" vertex="1">
          <mxGeometry y="60" width="380" height="60" as="geometry" />
        </mxCell>
        <mxCell id="gz-zTFn6-FiwdZ3l8_LW-6" value="status" style="shape=partialRectangle;html=1;whiteSpace=wrap;connectable=0;fillColor=none;top=0;left=0;bottom=0;right=0;overflow=hidden;strokeColor=inherit;fontSize=16;" parent="gz-zTFn6-FiwdZ3l8_LW-5" vertex="1">
          <mxGeometry width="110" height="60" as="geometry">
            <mxRectangle width="110" height="60" as="alternateBounds" />
          </mxGeometry>
        </mxCell>
        <mxCell id="gz-zTFn6-FiwdZ3l8_LW-7" value="varchar(8)&amp;nbsp;&lt;div&gt;enum(&quot;Listed&quot;, &quot;Done&quot;, &quot;Won&#39;t do&quot;)&lt;/div&gt;" style="shape=partialRectangle;html=1;whiteSpace=wrap;connectable=0;fillColor=none;top=0;left=0;bottom=0;right=0;align=left;spacingLeft=6;overflow=hidden;strokeColor=inherit;fontSize=16;" parent="gz-zTFn6-FiwdZ3l8_LW-5" vertex="1">
          <mxGeometry x="110" width="270" height="60" as="geometry">
            <mxRectangle width="270" height="60" as="alternateBounds" />
          </mxGeometry>
        </mxCell>
        <mxCell id="gz-zTFn6-FiwdZ3l8_LW-8" value="" style="shape=tableRow;horizontal=0;startSize=0;swimlaneHead=0;swimlaneBody=0;top=0;left=0;bottom=0;right=0;collapsible=0;dropTarget=0;fillColor=none;points=[[0,0.5],[1,0.5]];portConstraint=eastwest;strokeColor=inherit;fontSize=16;" parent="gz-zTFn6-FiwdZ3l8_LW-1" vertex="1">
          <mxGeometry y="120" width="380" height="30" as="geometry" />
        </mxCell>
        <mxCell id="gz-zTFn6-FiwdZ3l8_LW-9" value="deadline" style="shape=partialRectangle;html=1;whiteSpace=wrap;connectable=0;fillColor=none;top=0;left=0;bottom=0;right=0;overflow=hidden;strokeColor=inherit;fontSize=16;" parent="gz-zTFn6-FiwdZ3l8_LW-8" vertex="1">
          <mxGeometry width="110" height="30" as="geometry">
            <mxRectangle width="110" height="30" as="alternateBounds" />
          </mxGeometry>
        </mxCell>
        <mxCell id="gz-zTFn6-FiwdZ3l8_LW-10" value="date" style="shape=partialRectangle;html=1;whiteSpace=wrap;connectable=0;fillColor=none;top=0;left=0;bottom=0;right=0;align=left;spacingLeft=6;overflow=hidden;strokeColor=inherit;fontSize=16;" parent="gz-zTFn6-FiwdZ3l8_LW-8" vertex="1">
          <mxGeometry x="110" width="270" height="30" as="geometry">
            <mxRectangle width="270" height="30" as="alternateBounds" />
          </mxGeometry>
        </mxCell>
        <mxCell id="aJHLAEcT-9bs53h64otc-1" style="edgeStyle=orthogonalEdgeStyle;rounded=0;orthogonalLoop=1;jettySize=auto;html=1;entryX=0;entryY=0.5;entryDx=0;entryDy=0;endArrow=ERmandOne;endFill=0;startArrow=ERmandOne;startFill=0;" parent="1" source="XhaklSJaQbSjjz6L1v3r-2" target="gz-zTFn6-FiwdZ3l8_LW-2" edge="1">
          <mxGeometry relative="1" as="geometry" />
        </mxCell>
        <mxCell id="SKnP6bMkc_-LQA8Q0PXa-1" value="event_data_tb" style="shape=table;startSize=30;container=1;collapsible=0;childLayout=tableLayout;fixedRows=1;rowLines=0;fontStyle=0;strokeColor=default;fontSize=16;" parent="1" vertex="1">
          <mxGeometry x="500" y="50" width="380" height="123.00000000000034" as="geometry" />
        </mxCell>
        <mxCell id="SKnP6bMkc_-LQA8Q0PXa-2" value="" style="shape=tableRow;horizontal=0;startSize=0;swimlaneHead=0;swimlaneBody=0;top=0;left=0;bottom=0;right=0;collapsible=0;dropTarget=0;fillColor=none;points=[[0,0.5],[1,0.5]];portConstraint=eastwest;strokeColor=inherit;fontSize=16;" parent="SKnP6bMkc_-LQA8Q0PXa-1" vertex="1">
          <mxGeometry y="30" width="380" height="30" as="geometry" />
        </mxCell>
        <mxCell id="SKnP6bMkc_-LQA8Q0PXa-3" value="&lt;b&gt;&lt;u&gt;things_id&lt;/u&gt;&lt;/b&gt;" style="shape=partialRectangle;html=1;whiteSpace=wrap;connectable=0;fillColor=none;top=0;left=0;bottom=0;right=0;overflow=hidden;pointerEvents=1;strokeColor=inherit;fontSize=16;" parent="SKnP6bMkc_-LQA8Q0PXa-2" vertex="1">
          <mxGeometry width="110" height="30" as="geometry">
            <mxRectangle width="110" height="30" as="alternateBounds" />
          </mxGeometry>
        </mxCell>
        <mxCell id="SKnP6bMkc_-LQA8Q0PXa-4" value="int FOREIGN KEY" style="shape=partialRectangle;html=1;whiteSpace=wrap;connectable=0;fillColor=none;top=0;left=0;bottom=0;right=0;align=left;spacingLeft=6;overflow=hidden;strokeColor=inherit;fontSize=16;" parent="SKnP6bMkc_-LQA8Q0PXa-2" vertex="1">
          <mxGeometry x="110" width="270" height="30" as="geometry">
            <mxRectangle width="270" height="30" as="alternateBounds" />
          </mxGeometry>
        </mxCell>
        <mxCell id="SKnP6bMkc_-LQA8Q0PXa-5" value="" style="shape=tableRow;horizontal=0;startSize=0;swimlaneHead=0;swimlaneBody=0;top=0;left=0;bottom=0;right=0;collapsible=0;dropTarget=0;fillColor=none;points=[[0,0.5],[1,0.5]];portConstraint=eastwest;strokeColor=inherit;fontSize=16;" parent="SKnP6bMkc_-LQA8Q0PXa-1" vertex="1">
          <mxGeometry y="60" width="380" height="60" as="geometry" />
        </mxCell>
        <mxCell id="SKnP6bMkc_-LQA8Q0PXa-6" value="date_of_event" style="shape=partialRectangle;html=1;whiteSpace=wrap;connectable=0;fillColor=none;top=0;left=0;bottom=0;right=0;overflow=hidden;strokeColor=inherit;fontSize=16;" parent="SKnP6bMkc_-LQA8Q0PXa-5" vertex="1">
          <mxGeometry width="110" height="60" as="geometry">
            <mxRectangle width="110" height="60" as="alternateBounds" />
          </mxGeometry>
        </mxCell>
        <mxCell id="SKnP6bMkc_-LQA8Q0PXa-7" value="datetime" style="shape=partialRectangle;html=1;whiteSpace=wrap;connectable=0;fillColor=none;top=0;left=0;bottom=0;right=0;align=left;spacingLeft=6;overflow=hidden;strokeColor=inherit;fontSize=16;" parent="SKnP6bMkc_-LQA8Q0PXa-5" vertex="1">
          <mxGeometry x="110" width="270" height="60" as="geometry">
            <mxRectangle width="270" height="60" as="alternateBounds" />
          </mxGeometry>
        </mxCell>
        <mxCell id="MbwDExy8dFOKgtpeTRLi-1" style="edgeStyle=orthogonalEdgeStyle;rounded=0;orthogonalLoop=1;jettySize=auto;html=1;entryX=0;entryY=0.5;entryDx=0;entryDy=0;endArrow=ERmandOne;endFill=0;startArrow=ERmandOne;startFill=0;exitX=1;exitY=0.5;exitDx=0;exitDy=0;" parent="1" source="XhaklSJaQbSjjz6L1v3r-2" target="SKnP6bMkc_-LQA8Q0PXa-2" edge="1">
          <mxGeometry relative="1" as="geometry">
            <mxPoint x="410" y="285" as="sourcePoint" />
            <mxPoint x="510" y="285" as="targetPoint" />
          </mxGeometry>
        </mxCell>
        <mxCell id="MbwDExy8dFOKgtpeTRLi-2" value="shopping_data_tb" style="shape=table;startSize=30;container=1;collapsible=0;childLayout=tableLayout;fixedRows=1;rowLines=0;fontStyle=0;strokeColor=default;fontSize=16;" parent="1" vertex="1">
          <mxGeometry x="490" y="430" width="380" height="203.00000000000034" as="geometry" />
        </mxCell>
        <mxCell id="MbwDExy8dFOKgtpeTRLi-3" value="" style="shape=tableRow;horizontal=0;startSize=0;swimlaneHead=0;swimlaneBody=0;top=0;left=0;bottom=0;right=0;collapsible=0;dropTarget=0;fillColor=none;points=[[0,0.5],[1,0.5]];portConstraint=eastwest;strokeColor=inherit;fontSize=16;" parent="MbwDExy8dFOKgtpeTRLi-2" vertex="1">
          <mxGeometry y="30" width="380" height="30" as="geometry" />
        </mxCell>
        <mxCell id="MbwDExy8dFOKgtpeTRLi-4" value="&lt;b&gt;&lt;u&gt;things_id&lt;/u&gt;&lt;/b&gt;" style="shape=partialRectangle;html=1;whiteSpace=wrap;connectable=0;fillColor=none;top=0;left=0;bottom=0;right=0;overflow=hidden;pointerEvents=1;strokeColor=inherit;fontSize=16;" parent="MbwDExy8dFOKgtpeTRLi-3" vertex="1">
          <mxGeometry width="110" height="30" as="geometry">
            <mxRectangle width="110" height="30" as="alternateBounds" />
          </mxGeometry>
        </mxCell>
        <mxCell id="MbwDExy8dFOKgtpeTRLi-5" value="int FOREIGN KEY" style="shape=partialRectangle;html=1;whiteSpace=wrap;connectable=0;fillColor=none;top=0;left=0;bottom=0;right=0;align=left;spacingLeft=6;overflow=hidden;strokeColor=inherit;fontSize=16;" parent="MbwDExy8dFOKgtpeTRLi-3" vertex="1">
          <mxGeometry x="110" width="270" height="30" as="geometry">
            <mxRectangle width="270" height="30" as="alternateBounds" />
          </mxGeometry>
        </mxCell>
        <mxCell id="MbwDExy8dFOKgtpeTRLi-6" value="" style="shape=tableRow;horizontal=0;startSize=0;swimlaneHead=0;swimlaneBody=0;top=0;left=0;bottom=0;right=0;collapsible=0;dropTarget=0;fillColor=none;points=[[0,0.5],[1,0.5]];portConstraint=eastwest;strokeColor=inherit;fontSize=16;" parent="MbwDExy8dFOKgtpeTRLi-2" vertex="1">
          <mxGeometry y="60" width="380" height="60" as="geometry" />
        </mxCell>
        <mxCell id="MbwDExy8dFOKgtpeTRLi-7" value="status" style="shape=partialRectangle;html=1;whiteSpace=wrap;connectable=0;fillColor=none;top=0;left=0;bottom=0;right=0;overflow=hidden;strokeColor=inherit;fontSize=16;" parent="MbwDExy8dFOKgtpeTRLi-6" vertex="1">
          <mxGeometry width="110" height="60" as="geometry">
            <mxRectangle width="110" height="60" as="alternateBounds" />
          </mxGeometry>
        </mxCell>
        <mxCell id="MbwDExy8dFOKgtpeTRLi-8" value="varchar(8)&amp;nbsp;&lt;div&gt;enum(&quot;Listed&quot;, &quot;Done&quot;, &quot;Won&#39;t Buy&quot;)&lt;/div&gt;" style="shape=partialRectangle;html=1;whiteSpace=wrap;connectable=0;fillColor=none;top=0;left=0;bottom=0;right=0;align=left;spacingLeft=6;overflow=hidden;strokeColor=inherit;fontSize=16;" parent="MbwDExy8dFOKgtpeTRLi-6" vertex="1">
          <mxGeometry x="110" width="270" height="60" as="geometry">
            <mxRectangle width="270" height="60" as="alternateBounds" />
          </mxGeometry>
        </mxCell>
        <mxCell id="MbwDExy8dFOKgtpeTRLi-9" value="" style="shape=tableRow;horizontal=0;startSize=0;swimlaneHead=0;swimlaneBody=0;top=0;left=0;bottom=0;right=0;collapsible=0;dropTarget=0;fillColor=none;points=[[0,0.5],[1,0.5]];portConstraint=eastwest;strokeColor=inherit;fontSize=16;" parent="MbwDExy8dFOKgtpeTRLi-2" vertex="1">
          <mxGeometry y="120" width="380" height="30" as="geometry" />
        </mxCell>
        <mxCell id="MbwDExy8dFOKgtpeTRLi-10" value="quantity" style="shape=partialRectangle;html=1;whiteSpace=wrap;connectable=0;fillColor=none;top=0;left=0;bottom=0;right=0;overflow=hidden;strokeColor=inherit;fontSize=16;" parent="MbwDExy8dFOKgtpeTRLi-9" vertex="1">
          <mxGeometry width="110" height="30" as="geometry">
            <mxRectangle width="110" height="30" as="alternateBounds" />
          </mxGeometry>
        </mxCell>
        <mxCell id="MbwDExy8dFOKgtpeTRLi-11" value="int" style="shape=partialRectangle;html=1;whiteSpace=wrap;connectable=0;fillColor=none;top=0;left=0;bottom=0;right=0;align=left;spacingLeft=6;overflow=hidden;strokeColor=inherit;fontSize=16;" parent="MbwDExy8dFOKgtpeTRLi-9" vertex="1">
          <mxGeometry x="110" width="270" height="30" as="geometry">
            <mxRectangle width="270" height="30" as="alternateBounds" />
          </mxGeometry>
        </mxCell>
        <mxCell id="s2Cnl7Ke7qTW9R_UNOL4-49" value="" style="shape=tableRow;horizontal=0;startSize=0;swimlaneHead=0;swimlaneBody=0;top=0;left=0;bottom=0;right=0;collapsible=0;dropTarget=0;fillColor=none;points=[[0,0.5],[1,0.5]];portConstraint=eastwest;strokeColor=inherit;fontSize=16;" parent="MbwDExy8dFOKgtpeTRLi-2" vertex="1">
          <mxGeometry y="150" width="380" height="50" as="geometry" />
        </mxCell>
        <mxCell id="s2Cnl7Ke7qTW9R_UNOL4-50" value="price" style="shape=partialRectangle;html=1;whiteSpace=wrap;connectable=0;fillColor=none;top=0;left=0;bottom=0;right=0;overflow=hidden;strokeColor=inherit;fontSize=16;" parent="s2Cnl7Ke7qTW9R_UNOL4-49" vertex="1">
          <mxGeometry width="110" height="50" as="geometry">
            <mxRectangle width="110" height="50" as="alternateBounds" />
          </mxGeometry>
        </mxCell>
        <mxCell id="s2Cnl7Ke7qTW9R_UNOL4-51" value="varchar(15)&lt;div&gt;Starting with Rp. {quantity}&lt;/div&gt;" style="shape=partialRectangle;html=1;whiteSpace=wrap;connectable=0;fillColor=none;top=0;left=0;bottom=0;right=0;align=left;spacingLeft=6;overflow=hidden;strokeColor=inherit;fontSize=16;" parent="s2Cnl7Ke7qTW9R_UNOL4-49" vertex="1">
          <mxGeometry x="110" width="270" height="50" as="geometry">
            <mxRectangle width="270" height="50" as="alternateBounds" />
          </mxGeometry>
        </mxCell>
        <mxCell id="UB7Ehv7AJvXbvg42NVE6-1" style="edgeStyle=orthogonalEdgeStyle;rounded=0;orthogonalLoop=1;jettySize=auto;html=1;entryX=0;entryY=0.5;entryDx=0;entryDy=0;endArrow=ERmandOne;endFill=0;startArrow=ERmandOne;startFill=0;exitX=1;exitY=0.5;exitDx=0;exitDy=0;" parent="1" source="XhaklSJaQbSjjz6L1v3r-2" target="MbwDExy8dFOKgtpeTRLi-3" edge="1">
          <mxGeometry relative="1" as="geometry">
            <mxPoint x="410" y="285" as="sourcePoint" />
            <mxPoint x="510" y="105" as="targetPoint" />
            <Array as="points">
              <mxPoint x="450" y="275" />
              <mxPoint x="450" y="475" />
            </Array>
          </mxGeometry>
        </mxCell>
        <mxCell id="UB7Ehv7AJvXbvg42NVE6-5" value="user_tb" style="shape=table;startSize=30;container=1;collapsible=0;childLayout=tableLayout;fixedRows=1;rowLines=0;fontStyle=0;strokeColor=default;fontSize=16;" parent="1" vertex="1">
          <mxGeometry x="-360" y="230" width="360" height="203.00000000000045" as="geometry" />
        </mxCell>
        <mxCell id="UB7Ehv7AJvXbvg42NVE6-6" value="" style="shape=tableRow;horizontal=0;startSize=0;swimlaneHead=0;swimlaneBody=0;top=0;left=0;bottom=0;right=0;collapsible=0;dropTarget=0;fillColor=none;points=[[0,0.5],[1,0.5]];portConstraint=eastwest;strokeColor=inherit;fontSize=16;" parent="UB7Ehv7AJvXbvg42NVE6-5" vertex="1">
          <mxGeometry y="30" width="360" height="30" as="geometry" />
        </mxCell>
        <mxCell id="UB7Ehv7AJvXbvg42NVE6-7" value="&lt;b&gt;&lt;u&gt;user_id&lt;/u&gt;&lt;/b&gt;" style="shape=partialRectangle;html=1;whiteSpace=wrap;connectable=0;fillColor=none;top=0;left=0;bottom=0;right=0;overflow=hidden;pointerEvents=1;strokeColor=inherit;fontSize=16;" parent="UB7Ehv7AJvXbvg42NVE6-6" vertex="1">
          <mxGeometry width="110" height="30" as="geometry">
            <mxRectangle width="110" height="30" as="alternateBounds" />
          </mxGeometry>
        </mxCell>
        <mxCell id="UB7Ehv7AJvXbvg42NVE6-8" value="int AUTO_INCREMENT" style="shape=partialRectangle;html=1;whiteSpace=wrap;connectable=0;fillColor=none;top=0;left=0;bottom=0;right=0;align=left;spacingLeft=6;overflow=hidden;strokeColor=inherit;fontSize=16;" parent="UB7Ehv7AJvXbvg42NVE6-6" vertex="1">
          <mxGeometry x="110" width="250" height="30" as="geometry">
            <mxRectangle width="250" height="30" as="alternateBounds" />
          </mxGeometry>
        </mxCell>
        <mxCell id="UB7Ehv7AJvXbvg42NVE6-9" value="" style="shape=tableRow;horizontal=0;startSize=0;swimlaneHead=0;swimlaneBody=0;top=0;left=0;bottom=0;right=0;collapsible=0;dropTarget=0;fillColor=none;points=[[0,0.5],[1,0.5]];portConstraint=eastwest;strokeColor=inherit;fontSize=16;" parent="UB7Ehv7AJvXbvg42NVE6-5" vertex="1">
          <mxGeometry y="60" width="360" height="60" as="geometry" />
        </mxCell>
        <mxCell id="UB7Ehv7AJvXbvg42NVE6-10" value="name" style="shape=partialRectangle;html=1;whiteSpace=wrap;connectable=0;fillColor=none;top=0;left=0;bottom=0;right=0;overflow=hidden;strokeColor=inherit;fontSize=16;" parent="UB7Ehv7AJvXbvg42NVE6-9" vertex="1">
          <mxGeometry width="110" height="60" as="geometry">
            <mxRectangle width="110" height="60" as="alternateBounds" />
          </mxGeometry>
        </mxCell>
        <mxCell id="UB7Ehv7AJvXbvg42NVE6-11" value="varchar(255)" style="shape=partialRectangle;html=1;whiteSpace=wrap;connectable=0;fillColor=none;top=0;left=0;bottom=0;right=0;align=left;spacingLeft=6;overflow=hidden;strokeColor=inherit;fontSize=16;" parent="UB7Ehv7AJvXbvg42NVE6-9" vertex="1">
          <mxGeometry x="110" width="250" height="60" as="geometry">
            <mxRectangle width="250" height="60" as="alternateBounds" />
          </mxGeometry>
        </mxCell>
        <mxCell id="UB7Ehv7AJvXbvg42NVE6-12" value="" style="shape=tableRow;horizontal=0;startSize=0;swimlaneHead=0;swimlaneBody=0;top=0;left=0;bottom=0;right=0;collapsible=0;dropTarget=0;fillColor=none;points=[[0,0.5],[1,0.5]];portConstraint=eastwest;strokeColor=inherit;fontSize=16;" parent="UB7Ehv7AJvXbvg42NVE6-5" vertex="1">
          <mxGeometry y="120" width="360" height="30" as="geometry" />
        </mxCell>
        <mxCell id="UB7Ehv7AJvXbvg42NVE6-13" value="username" style="shape=partialRectangle;html=1;whiteSpace=wrap;connectable=0;fillColor=none;top=0;left=0;bottom=0;right=0;overflow=hidden;strokeColor=inherit;fontSize=16;" parent="UB7Ehv7AJvXbvg42NVE6-12" vertex="1">
          <mxGeometry width="110" height="30" as="geometry">
            <mxRectangle width="110" height="30" as="alternateBounds" />
          </mxGeometry>
        </mxCell>
        <mxCell id="UB7Ehv7AJvXbvg42NVE6-14" value="varchar(255)" style="shape=partialRectangle;html=1;whiteSpace=wrap;connectable=0;fillColor=none;top=0;left=0;bottom=0;right=0;align=left;spacingLeft=6;overflow=hidden;strokeColor=inherit;fontSize=16;" parent="UB7Ehv7AJvXbvg42NVE6-12" vertex="1">
          <mxGeometry x="110" width="250" height="30" as="geometry">
            <mxRectangle width="250" height="30" as="alternateBounds" />
          </mxGeometry>
        </mxCell>
        <mxCell id="UB7Ehv7AJvXbvg42NVE6-15" value="" style="shape=tableRow;horizontal=0;startSize=0;swimlaneHead=0;swimlaneBody=0;top=0;left=0;bottom=0;right=0;collapsible=0;dropTarget=0;fillColor=none;points=[[0,0.5],[1,0.5]];portConstraint=eastwest;strokeColor=inherit;fontSize=16;" parent="UB7Ehv7AJvXbvg42NVE6-5" vertex="1">
          <mxGeometry y="150" width="360" height="50" as="geometry" />
        </mxCell>
        <mxCell id="UB7Ehv7AJvXbvg42NVE6-16" value="password" style="shape=partialRectangle;html=1;whiteSpace=wrap;connectable=0;fillColor=none;top=0;left=0;bottom=0;right=0;overflow=hidden;strokeColor=inherit;fontSize=16;" parent="UB7Ehv7AJvXbvg42NVE6-15" vertex="1">
          <mxGeometry width="110" height="50" as="geometry">
            <mxRectangle width="110" height="50" as="alternateBounds" />
          </mxGeometry>
        </mxCell>
        <mxCell id="UB7Ehv7AJvXbvg42NVE6-17" value="varchar(255)&lt;div&gt;encrypted using sha256 + salt&lt;/div&gt;" style="shape=partialRectangle;html=1;whiteSpace=wrap;connectable=0;fillColor=none;top=0;left=0;bottom=0;right=0;align=left;spacingLeft=6;overflow=hidden;strokeColor=inherit;fontSize=16;" parent="UB7Ehv7AJvXbvg42NVE6-15" vertex="1">
          <mxGeometry x="110" width="250" height="50" as="geometry">
            <mxRectangle width="250" height="50" as="alternateBounds" />
          </mxGeometry>
        </mxCell>
        <mxCell id="UB7Ehv7AJvXbvg42NVE6-21" style="edgeStyle=orthogonalEdgeStyle;rounded=0;orthogonalLoop=1;jettySize=auto;html=1;entryX=0;entryY=0.5;entryDx=0;entryDy=0;endArrow=ERmandOne;endFill=0;startArrow=ERmandOne;startFill=0;exitX=1;exitY=0.5;exitDx=0;exitDy=0;" parent="1" source="UB7Ehv7AJvXbvg42NVE6-6" target="UB7Ehv7AJvXbvg42NVE6-2" edge="1">
          <mxGeometry relative="1" as="geometry">
            <mxPoint y="270" as="sourcePoint" />
            <mxPoint x="90" y="470" as="targetPoint" />
            <Array as="points">
              <mxPoint x="40" y="275" />
              <mxPoint x="40" y="455" />
            </Array>
          </mxGeometry>
        </mxCell>
      </root>
    </mxGraphModel>
  </diagram>
</mxfile>
